<svg xmlns="http://www.w3.org/2000/svg" xmlns:xlink="http://www.w3.org/1999/xlink" viewBox="0 0 500 500"><defs><style>.cls-1,.cls-5{fill:none;}.cls-2{isolation:isolate;}.cls-3{clip-path:url(#clip-path);}.cls-4{fill:#948ab6;}.cls-5{stroke:#fff;stroke-miterlimit:10;stroke-width:2px;}.cls-10,.cls-11,.cls-6{fill:#eba08c;}.cls-7{fill:#000035;}.cls-8{fill:#2847fb;}.cls-9{fill:#071882;}.cls-10{opacity:0.2;}.cls-10,.cls-11{mix-blend-mode:multiply;}.cls-12{opacity:0.35;}.cls-13{fill:#fff;}</style><clipPath id="clip-path"><circle class="cls-1" cx="252.14" cy="252.52" r="215.95"/></clipPath></defs><g class="cls-2"><g id="BACKGROUND"><g class="cls-3"><rect class="cls-4" width="500" height="500"/></g><g class="cls-3"><circle class="cls-5" cx="252.14" cy="252.52" r="233.22"/><path class="cls-6" d="M335,223.16c0,47-29.87,103-85,103s-85-56.05-85-103a85,85,0,1,1,170.07,0Z"/><path class="cls-7" d="M174.43,228.05c4.31-6.08,6.53-13.4,7.84-20.73,1.45-8.12,1.75-16.92-2.24-24.13a12.85,12.85,0,0,0-5.16-5.44c-4-2.05-9.09-.76-12.51,2.16s-5.4,7.15-6.81,11.41c-4.11,12.49-3.83,26-1.5,38.78,1.11,6.11.88,10.72,8,8A28,28,0,0,0,174.43,228.05Z"/><path class="cls-7" d="M329.12,228.05c-4.31-6.08-6.54-13.4-7.84-20.73-1.45-8.12-1.75-16.92,2.23-24.13a12.93,12.93,0,0,1,5.17-5.44c4-2.05,9.09-.76,12.5,2.16s5.41,7.15,6.81,11.41c4.11,12.49,3.83,26,1.5,38.78-1.11,6.11-.88,10.72-8,8A28,28,0,0,1,329.12,228.05Z"/><path class="cls-7" d="M227.7,218.31a7.56,7.56,0,1,1-7.55-7.56A7.55,7.55,0,0,1,227.7,218.31Z"/><path class="cls-7" d="M194.66,213.74a38.41,38.41,0,0,1,6.91-10.15,41.86,41.86,0,0,1,9.8-7.68l2.77-1.5,2.87-1.34c1-.37,2-.72,3-1s2.07-.46,3.11-.65l3.16-.28c1.06,0,2.11,0,3.16.08s2.1.28,3.12.45,2,.54,3,.9l0,.39c-1,.22-2,.35-3,.48s-2,.37-2.94.5-1.92.4-2.88.59l-2.82.69c-.93.27-1.85.52-2.79.74s-1.85.53-2.79.77l-2.78.87-2.7,1.1a44.52,44.52,0,0,0-9.9,6.33,40.72,40.72,0,0,0-7.9,8.94Z"/><circle class="cls-7" cx="285.18" cy="218.31" r="7.56"/><path class="cls-7" d="M310.32,213.93a40.46,40.46,0,0,0-7.9-8.94,44.46,44.46,0,0,0-9.89-6.33l-2.71-1.1-2.77-.87c-.94-.24-1.87-.49-2.79-.77s-1.87-.47-2.8-.74l-2.82-.69c-.95-.19-1.91-.35-2.87-.59s-1.95-.31-2.94-.5-2-.26-3-.48l-.05-.39c1-.36,2-.63,3-.9s2.07-.33,3.12-.45,2.11-.06,3.17-.08l3.16.28c1,.19,2.08.4,3.11.65s2,.67,3,1l2.87,1.34,2.77,1.5a41.86,41.86,0,0,1,9.8,7.68,38.62,38.62,0,0,1,6.9,10.15Z"/><path class="cls-7" d="M226.76,270.58a51.89,51.89,0,0,0,6.1,5.49,44.71,44.71,0,0,0,6.84,4.44c1.18.66,2.44,1.16,3.67,1.72a32.31,32.31,0,0,0,3.84,1.22,31.13,31.13,0,0,0,3.94.76,24.18,24.18,0,0,0,4,0,21.9,21.9,0,0,0,3.92-.62c.64-.17,1.26-.42,1.9-.62.31-.12.63-.21.94-.33l.92-.42a34.32,34.32,0,0,0,6.92-4.15,47.48,47.48,0,0,0,6.11-5.42,61.4,61.4,0,0,0,5.39-6.2A49.81,49.81,0,0,1,270.43,279a32,32,0,0,1-7,4.52l-.95.45c-.33.14-.67.24-1,.36-.67.23-1.33.49-2,.68a21.29,21.29,0,0,1-4.2.69,25,25,0,0,1-4.24-.07,30.67,30.67,0,0,1-4.14-.84,34.5,34.5,0,0,1-4-1.38,36.22,36.22,0,0,1-3.72-1.91,45.75,45.75,0,0,1-6.75-4.87A43.62,43.62,0,0,1,226.76,270.58Z"/><path class="cls-6" d="M256.14,388.63c21.76,0,35.09-16.84,41.73-28.55-8.27-4.22-14.31-8.74-16.19-13.82-7.09-19.18-4.25-40.86-4.25-40.86L254,307,228.8,305.4s4.51,21.68-2.58,40.86c-2,5.4-8.68,10.17-17.78,14.63C216.1,371.16,232.59,388.63,256.14,388.63Z"/><path class="cls-8" d="M378.43,394.22c-15.09-11.32-48.1-20-71.49-29.94-8.16,14.38-24.54,35.09-51.28,35.09-28.59,0-48.71-20.95-58.26-33.62-23.08,9.32-53.59,17.72-67.93,28.47C106.12,411.74,95.27,486,95.27,486H412.63S401.78,411.74,378.43,394.22Z"/><path class="cls-9" d="M255.66,399.37c26.74,0,43.12-20.71,51.28-35.09-3.24-1.37-6.28-2.77-9.07-4.2-6.64,11.71-20,28.55-41.73,28.55-23.55,0-40-17.47-47.7-27.74-3.38,1.66-7.11,3.27-11,4.86C207,378.42,227.07,399.37,255.66,399.37Z"/><path class="cls-7" d="M209.24,314.2a83,83,0,0,0,11,4.93,105.46,105.46,0,0,0,11.47,3.54,94.24,94.24,0,0,0,11.77,2.11,81.82,81.82,0,0,0,11.91.54,63.93,63.93,0,0,0,23-5.49A87,87,0,0,0,289,314.32a82,82,0,0,0,9.86-6.92A73,73,0,0,1,279,321.2a66.45,66.45,0,0,1-11.46,4.23,57.08,57.08,0,0,1-12.12,1.82,81.52,81.52,0,0,1-24.14-3.12A78.94,78.94,0,0,1,209.24,314.2Z"/><ellipse class="cls-10" cx="297.46" cy="250.73" rx="17.96" ry="13.63"/><ellipse class="cls-10" cx="210.34" cy="250.73" rx="17.96" ry="13.63"/><path class="cls-7" d="M251.62,207.54l.5,6c.18,2,.36,4,.58,6a79.59,79.59,0,0,0,2.16,11.82,46.47,46.47,0,0,0,4.46,11,32.32,32.32,0,0,0,7.54,9.07l.43.35-.27.47a39.13,39.13,0,0,1-7.28,8.82,41,41,0,0,1-4.44,3.57,46.2,46.2,0,0,1-4.82,3,58.29,58.29,0,0,0,8.69-7.18,41.34,41.34,0,0,0,6.74-8.86l.16.82a31.49,31.49,0,0,1-8-9.35,43.81,43.81,0,0,1-4.49-11.42,69.68,69.68,0,0,1-1.74-12.07c-.14-2-.21-4.05-.22-6.07S251.58,209.56,251.62,207.54Z"/><path class="cls-7" d="M348.61,217.53c8.6-8.29,15.76-75.24,12-86.47-1.25,4.23-4.12,9.77-7.51,12.68A52.49,52.49,0,0,0,356.61,128c.45-11.29-2.48-22.83-7.18-33.16-9.42,7-21.31,10.31-33.11,10.63s-23.8-.17-34.89-4.14a35.88,35.88,0,0,0,7.51-12.55C278.12,91.81,266.69,92,255.42,92s-22.64-.27-33.68,1.94-22.15,8.66-29.18,17.26c.77-5.71,2.75-13.62,2.72-19.38-4.83,6.44-12.84,9.94-18.07,16.07a25.23,25.23,0,0,0-5.92,18.33c-1.24-1.56-4.7-2.18-6.71-2.22a19.08,19.08,0,0,0-5.92,1.11,139.94,139.94,0,0,0-18.82,7.33c5.91,4.12,13.73,6.61,20.87,5.33-8.78,6.5-15.82,17.53-16.63,28.27s2.18,45.65,9.89,53.35c9.45-.25,20.26-27.51,27.42-33.56a40.66,40.66,0,0,0,13.7-23.69c11.37,10.85,26.21,18.22,42.09,18.78a43,43,0,0,0-12.45-20.51c9.25,6.72,19.36,7.1,30.87,7.47s23.33-.07,34.19,3.67c12.18,4.2,31.18,18.47,39.65,28"/><path class="cls-6" d="M357.62,237.46a30.88,30.88,0,0,1-8.74,15.88,23.18,23.18,0,0,1-9.89,6.13,11.87,11.87,0,0,1-10.34-1.67c-2.62-2-4.26-5.36-5.06-8.92-1.85-8.24.65-17.81,5.71-25,3.51-5,8.49-9,13.84-9.71C353.92,212.84,359.64,226.73,357.62,237.46Z"/><path class="cls-11" d="M327.26,250.1a14,14,0,0,0,7.33-2.64,2.57,2.57,0,0,0,1.32-2,2.48,2.48,0,0,0-.52-1.25,22.87,22.87,0,0,0-5.39-5.74,47,47,0,0,1,5.36-9.87c2.28-3,5.41-5.34,8.91-5.82a8.07,8.07,0,0,1,8.65,4.74s4.7,9.92-6.37,20.67C334.88,259.54,327.26,250.1,327.26,250.1Z"/><path class="cls-7" d="M352.92,227.54a7.44,7.44,0,0,0-2.61-3,8.51,8.51,0,0,0-3.68-1.32,10.31,10.31,0,0,0-7.28,2.31,20.9,20.9,0,0,0-5.15,6,71.16,71.16,0,0,0-3.62,7.26l-.2-.77a22.64,22.64,0,0,1,3.63,3.49,22.35,22.35,0,0,1,1.49,2,7.49,7.49,0,0,1,.67,1.13,2,2,0,0,1,.08,1.53,4.21,4.21,0,0,1-1.89,1.91,15.15,15.15,0,0,1-2.25,1.11,13.14,13.14,0,0,1-4.85.93,14.58,14.58,0,0,0,4.64-1.39,15.26,15.26,0,0,0,2.06-1.25,3.54,3.54,0,0,0,1.45-1.58c.19-.57-.24-1.13-.74-1.81s-1-1.27-1.51-1.87a22.36,22.36,0,0,0-3.54-3.2l-.41-.3.2-.47a59.35,59.35,0,0,1,3.66-7.42,20.36,20.36,0,0,1,5.59-6.25,10.84,10.84,0,0,1,8.08-2.12A7.83,7.83,0,0,1,352.92,227.54Z"/><path class="cls-6" d="M140,237.46a30.83,30.83,0,0,0,8.75,15.88,23.15,23.15,0,0,0,9.88,6.13A11.86,11.86,0,0,0,169,257.8c2.63-2,4.27-5.36,5.07-8.92,1.84-8.24-.65-17.81-5.71-25-3.52-5-8.49-9-13.84-9.71C143.72,212.84,138,226.73,140,237.46Z"/><path class="cls-11" d="M170.39,250.1a14,14,0,0,1-7.33-2.64,2.57,2.57,0,0,1-1.32-2,2.39,2.39,0,0,1,.51-1.25,22.72,22.72,0,0,1,5.4-5.74,46.59,46.59,0,0,0-5.37-9.87c-2.28-3-5.4-5.34-8.91-5.82a8.07,8.07,0,0,0-8.65,4.74s-4.7,9.92,6.37,20.67C162.76,259.54,170.39,250.1,170.39,250.1Z"/><path class="cls-7" d="M144.72,227.54a7.84,7.84,0,0,1,6.18-5.1,10.83,10.83,0,0,1,8.08,2.12,20.4,20.4,0,0,1,5.6,6.25,60.69,60.69,0,0,1,3.65,7.42l.21.47-.41.3a21.93,21.93,0,0,0-3.54,3.2,22.56,22.56,0,0,0-1.52,1.87c-.5.68-.93,1.24-.73,1.81a3.46,3.46,0,0,0,1.44,1.58,16.62,16.62,0,0,0,2.06,1.25,14.56,14.56,0,0,0,4.65,1.39,13.16,13.16,0,0,1-4.86-.93,14.58,14.58,0,0,1-2.24-1.11,4.16,4.16,0,0,1-1.89-1.91,2,2,0,0,1,.07-1.53,8.43,8.43,0,0,1,.67-1.13,24.43,24.43,0,0,1,1.49-2,23.13,23.13,0,0,1,3.64-3.49l-.21.77a71.16,71.16,0,0,0-3.62-7.26,20.59,20.59,0,0,0-5.15-6A10.3,10.3,0,0,0,151,223.2a8.51,8.51,0,0,0-3.69,1.32A7.44,7.44,0,0,0,144.72,227.54Z"/><g class="cls-12"><path class="cls-13" d="M191.66,121.89a30.86,30.86,0,0,0,5.78,8.51,40.79,40.79,0,0,0,8,6.48,75.83,75.83,0,0,0,18.95,8l-.37.49a64.13,64.13,0,0,0-7.59-9.22c-2.77-2.89-5.65-5.67-8.46-8.55l.62-.6a38.25,38.25,0,0,0,14.75,9.08,71.53,71.53,0,0,0,17.16,3.53c5.85.58,11.74.8,17.63,1.26a138.59,138.59,0,0,1,17.55,2.5,124,124,0,0,1,17,4.89,104.66,104.66,0,0,1,16,7.57c1.26.78,2.58,1.46,3.78,2.32l3.67,2.48,3.51,2.72c1.17.9,2.23,1.93,3.35,2.89a79.17,79.17,0,0,1,11.66,13.27,81.29,81.29,0,0,0-26.27-23.16,104.13,104.13,0,0,0-16-7.35,131,131,0,0,0-16.94-4.76A136.62,136.62,0,0,0,258,141.8c-5.86-.45-11.76-.62-17.65-1.23A72,72,0,0,1,223,136.93,39.14,39.14,0,0,1,208,127.58l.62-.6c2.79,2.87,5.66,5.67,8.41,8.61a66.15,66.15,0,0,1,7.58,9.41l.47.75-.85-.26c-6.59-2-13.16-4.47-19-8.28a41.2,41.2,0,0,1-7.92-6.68A30.82,30.82,0,0,1,191.66,121.89Z"/><path class="cls-13" d="M237.86,106.83a73.12,73.12,0,0,0,18.63,11.51,72,72,0,0,0,21.14,5.43l-.28.79c-2.45-1.59-5-3.11-7.41-4.79a39.48,39.48,0,0,1-6.78-5.75l-2.87-3.13,3.5,2.43a18,18,0,0,0,4.21,2.15,23.73,23.73,0,0,0,4.65,1,51.9,51.9,0,0,0,9.66.11c3.23-.21,6.49-.47,9.77-.5a80.23,80.23,0,0,1,28.79,5.25,85.05,85.05,0,0,1,8.91,4.05,82.52,82.52,0,0,1,8.32,5.12,94.66,94.66,0,0,0-8.45-4.86,81.86,81.86,0,0,0-27.87-8.18,87.09,87.09,0,0,0-9.69-.48c-3.24,0-6.47.31-9.72.54a53.16,53.16,0,0,1-9.85-.06,23.34,23.34,0,0,1-4.85-1.11,18.76,18.76,0,0,1-4.44-2.31l.63-.71a39.18,39.18,0,0,0,6.6,5.64c2.4,1.67,4.9,3.2,7.36,4.82l1.49,1-1.77-.18a70.46,70.46,0,0,1-21.28-5.78A69,69,0,0,1,237.86,106.83Z"/><path class="cls-13" d="M181.33,141.69l-.24,3.59-.5,3.57-.76,3.52-1,3.48A56.62,56.62,0,0,1,163.47,180l-2.74,2.36-2.87,2.18-3,2-3.15,1.73,3-2,2.88-2.12,2.76-2.27,2.6-2.44a63.76,63.76,0,0,0,15.19-23.83A62.2,62.2,0,0,0,181.33,141.69Z"/></g></g></g></g></svg>