<svg xmlns="http://www.w3.org/2000/svg" xmlns:xlink="http://www.w3.org/1999/xlink" viewBox="0 0 500 500"><defs><style>.cls-1,.cls-13,.cls-4{fill:none;}.cls-2{isolation:isolate;}.cls-3{fill:#fff;}.cls-4{stroke:#fff;stroke-width:2px;}.cls-13,.cls-4{stroke-miterlimit:10;}.cls-5{clip-path:url(#clip-path);}.cls-6{fill:#de8b98;}.cls-7{clip-path:url(#clip-path-2);}.cls-8{fill:#000035;}.cls-11,.cls-12,.cls-9{fill:#eba08c;}.cls-10{fill:#2847fb;}.cls-11,.cls-12{mix-blend-mode:multiply;}.cls-12{opacity:0.2;}.cls-13{stroke:#000035;}.cls-14{opacity:0.38;}</style><clipPath id="clip-path"><circle class="cls-1" cx="246.64" cy="248.88" r="217.43"/></clipPath><clipPath id="clip-path-2"><circle class="cls-1" cx="248.25" cy="252.52" r="215.95"/></clipPath></defs><g class="cls-2"><g id="BACKGROUND"><circle class="cls-3" cx="252.14" cy="252.52" r="215.95"/><circle class="cls-4" cx="248.25" cy="252.52" r="233.22"/><g class="cls-5"><rect class="cls-6" width="500" height="500"/></g><circle class="cls-4" cx="246.64" cy="248.88" r="234.83"/><g class="cls-7"><g class="cls-5"><path class="cls-8" d="M197.2,448.56A198.82,198.82,0,0,1,86.1,413.13C53.72,390.57,30,357.14,16,320.24c7-12.57,14.66-25.83,27.42-32.47,5.9-3.06,12.59-4.52,18.2-8.09,9.12-5.82,14-16.38,17.19-26.72S84,231.73,89.33,222.33c5.18-9.07,13.28-16.23,22.26-21.57,8.68-5.16,18.49-8.94,25.28-16.41s9.59-17.55,12.21-27.26c3.36,2.64,8,.73,12.27.94a257.06,257.06,0,0,0,69.52-6c11,62,6.62,125.84.2,188.52-2.25,21.95-4.5,43.93-8.72,65.59C219.21,422.3,210.05,438.27,197.2,448.56Z"/><path class="cls-8" d="M292.88,448.56A198.85,198.85,0,0,0,404,413.13c32.38-22.56,56.09-56,70.09-92.89-7-12.57-14.66-25.83-27.43-32.47-5.9-3.06-12.59-4.52-18.19-8.09-9.12-5.82-14-16.38-17.2-26.72s-5.14-21.23-10.51-30.63c-5.18-9.07-13.27-16.23-22.25-21.57-8.68-5.16-18.5-8.94-25.29-16.41S343.62,166.8,341,157.09c-3.35,2.64-8,.73-12.26.94a257.1,257.1,0,0,1-69.53-6c-11,62-6.61,125.84-.2,188.52,2.25,21.95,4.5,43.93,8.72,65.59C270.88,422.3,280,438.27,292.88,448.56Z"/><path class="cls-9" d="M307.74,348.38c-1.44-.58-2.85-1.15-4.23-1.74l-1-.45c-2.26-1-4.4-2-6.46-3-.54-.27-1.11-.53-1.63-.8-1.12-.57-2.19-1.14-3.22-1.72-5.25-3-9.31-6.09-11.61-9.44a13.41,13.41,0,0,1-1.48-2.75c-7.13-19.32-4.28-41.15-4.28-41.15L250.16,289l-25.32-1.63s4.54,21.83-2.6,41.15a12.76,12.76,0,0,1-.76,1.59c-2.27,4.13-7.29,7.9-13.93,11.46l-.94.51c-.75.39-1.49.78-2.27,1.17-2.21,1.08-4.58,2.14-7.05,3.19-1.33.57-2.68,1.14-4.07,1.7l-3.14,1.24,59.6,89.39Z"/><path class="cls-10" d="M375.5,376.79c-14.31-10.73-44.61-19.13-67.76-28.41l-58.06,90.38-59.6-89.39c-22.8,8.89-51.46,17.08-65.26,27.42-23.51,17.64-34.43,92.38-34.43,92.38H409.93S399,394.43,375.5,376.79Z"/><ellipse class="cls-8" cx="245.07" cy="184.66" rx="100.14" ry="96.67"/><path class="cls-9" d="M331.8,204.56c0,47.29-30.07,103.72-85.62,103.72s-85.63-56.43-85.63-103.72a85.63,85.63,0,1,1,171.25,0Z"/><path class="cls-8" d="M170.09,207.44c8.9-14.84,16-50.74,12-59.35-1.24-2.66-9.28.63-11.55-.75-4-2.44-9.16-.9-12.6,2.58s-5.44,8.54-6.85,13.64c-4.14,14.92-3.86,31-1.52,46.33,1.12,7.3.89,12.81,8,9.55C162.64,217.13,167,212.64,170.09,207.44Z"/><path class="cls-8" d="M321.59,208.6c-4.34-7.26-6.58-16-7.9-24.77-1.45-9.69-1.75-20.21,2.26-28.83a14.61,14.61,0,0,1,5.2-6.5c4-2.44,9.15-.9,12.59,2.58s5.44,8.55,6.86,13.64c4.13,14.92,3.85,31,1.51,46.33-1.12,7.3-.89,12.81-8,9.55C329,218.29,324.7,213.8,321.59,208.6Z"/><path class="cls-9" d="M354.55,219a31.14,31.14,0,0,1-8.81,16,23.29,23.29,0,0,1-9.95,6.16,11.92,11.92,0,0,1-10.41-1.68c-2.65-2-4.3-5.39-5.1-9-1.86-8.3.65-17.93,5.75-25.14,3.54-5,8.54-9.1,13.93-9.78C350.82,194.16,356.58,208.15,354.55,219Z"/><path class="cls-11" d="M324,231.68a14.13,14.13,0,0,0,7.39-2.66,2.56,2.56,0,0,0,1.32-2,2.45,2.45,0,0,0-.51-1.26,22.88,22.88,0,0,0-5.44-5.78,47.43,47.43,0,0,1,5.4-9.94c2.3-3,5.45-5.37,9-5.86a8.14,8.14,0,0,1,8.72,4.77s4.73,10-6.41,20.82C331.65,241.19,324,231.68,324,231.68Z"/><path class="cls-8" d="M349.82,209a7.47,7.47,0,0,0-2.63-3,8.52,8.52,0,0,0-3.71-1.33,10.42,10.42,0,0,0-7.33,2.33,20.91,20.91,0,0,0-5.19,6,72.11,72.11,0,0,0-3.64,7.31l-.21-.77a22.53,22.53,0,0,1,3.66,3.51,23.37,23.37,0,0,1,1.51,2,9,9,0,0,1,.67,1.14,2,2,0,0,1,.07,1.53,4.16,4.16,0,0,1-1.9,1.92,14,14,0,0,1-2.26,1.12,13.32,13.32,0,0,1-4.89.94,14.75,14.75,0,0,0,4.68-1.4,15.43,15.43,0,0,0,2.07-1.26,3.47,3.47,0,0,0,1.46-1.59c.2-.57-.24-1.14-.73-1.83a23.06,23.06,0,0,0-1.53-1.87,22.32,22.32,0,0,0-3.57-3.23l-.41-.3.21-.47a60.24,60.24,0,0,1,3.68-7.48,20.36,20.36,0,0,1,5.63-6.28,10.85,10.85,0,0,1,8.13-2.14A7.93,7.93,0,0,1,349.82,209Z"/><path class="cls-9" d="M135.45,219a31.2,31.2,0,0,0,8.8,16,23.32,23.32,0,0,0,10,6.16,11.92,11.92,0,0,0,10.41-1.68c2.64-2,4.29-5.39,5.1-9,1.85-8.3-.66-17.93-5.75-25.14-3.54-5-8.55-9.1-13.94-9.78C139.17,194.16,133.41,208.15,135.45,219Z"/><path class="cls-11" d="M166,231.68a14.1,14.1,0,0,1-7.38-2.66,2.6,2.6,0,0,1-1.33-2,2.55,2.55,0,0,1,.52-1.26,22.84,22.84,0,0,1,5.43-5.78,47,47,0,0,0-5.4-9.94c-2.29-3-5.44-5.37-9-5.86a8.13,8.13,0,0,0-8.71,4.77s-4.73,10,6.41,20.82C158.34,241.19,166,231.68,166,231.68Z"/><path class="cls-8" d="M140.18,209a7.9,7.9,0,0,1,6.23-5.13,10.81,10.81,0,0,1,8.12,2.14,20.39,20.39,0,0,1,5.64,6.28,60.17,60.17,0,0,1,3.67,7.48l.21.47-.41.3a22.25,22.25,0,0,0-3.56,3.23,23.06,23.06,0,0,0-1.53,1.87c-.5.69-.94,1.26-.74,1.83a3.59,3.59,0,0,0,1.46,1.59,16.81,16.81,0,0,0,2.07,1.26,14.83,14.83,0,0,0,4.68,1.4,13.27,13.27,0,0,1-4.88-.94,14.07,14.07,0,0,1-2.27-1.12,4.2,4.2,0,0,1-1.9-1.92,2,2,0,0,1,.08-1.53,8,8,0,0,1,.67-1.14,22.1,22.1,0,0,1,5.16-5.55l-.2.77a72.18,72.18,0,0,0-3.65-7.31,20.61,20.61,0,0,0-5.19-6,10.38,10.38,0,0,0-7.32-2.33,8.51,8.51,0,0,0-3.72,1.33A7.52,7.52,0,0,0,140.18,209Z"/><path class="cls-8" d="M223.73,199.67a7.61,7.61,0,1,1-7.61-7.61A7.61,7.61,0,0,1,223.73,199.67Z"/><path class="cls-8" d="M190.47,195.07a38.91,38.91,0,0,1,6.95-10.22,42.61,42.61,0,0,1,9.87-7.72l2.79-1.51,2.89-1.35c1-.37,2-.73,3-1.05s2.08-.46,3.13-.66l3.18-.28c1.07,0,2.13,0,3.19.08s2.1.28,3.14.45,2,.55,3,.91l0,.38c-1,.22-2.05.35-3.05.48s-2,.37-3,.5-1.94.4-2.89.6l-2.85.68c-.93.27-1.87.53-2.81.75s-1.86.54-2.81.78l-2.79.88-2.73,1.11a44.17,44.17,0,0,0-10,6.38,40.54,40.54,0,0,0-7.95,9Z"/><path class="cls-8" d="M274,199.67a7.61,7.61,0,1,0,7.61-7.61A7.61,7.61,0,0,0,274,199.67Z"/><path class="cls-8" d="M306.93,195.26a40.58,40.58,0,0,0-8-9,44.17,44.17,0,0,0-10-6.38l-2.72-1.11-2.8-.88c-.95-.24-1.88-.49-2.81-.78s-1.88-.48-2.81-.75l-2.85-.68c-.95-.2-1.92-.36-2.89-.6s-2-.31-3-.5-2-.26-3.05-.48l0-.38c1-.36,2-.63,3-.91s2.09-.33,3.15-.45,2.11-.05,3.18-.08l3.18.28c1.05.2,2.09.41,3.13.66s2,.68,3,1.05l2.88,1.35,2.79,1.51a42.4,42.4,0,0,1,9.87,7.72,39.19,39.19,0,0,1,7,10.22Z"/><path class="cls-8" d="M222.78,252.3a51,51,0,0,0,6.15,5.53,44.83,44.83,0,0,0,6.88,4.48c1.2.66,2.46,1.17,3.7,1.72a33.32,33.32,0,0,0,3.86,1.24,33.88,33.88,0,0,0,4,.76,31.81,31.81,0,0,0,4,.08c5.36-.36,10.37-3,14.72-6.21a53.74,53.74,0,0,0,6.14-5.46,62.39,62.39,0,0,0,5.42-6.26,50.5,50.5,0,0,1-10.87,12.6,33.84,33.84,0,0,1-7.1,4.56,23.73,23.73,0,0,1-8.21,2.22,32,32,0,0,1-4.27-.13,28,28,0,0,1-4.17-.84,33.14,33.14,0,0,1-4-1.38,36.84,36.84,0,0,1-3.75-1.93,45.07,45.07,0,0,1-6.79-4.9A44.29,44.29,0,0,1,222.78,252.3Z"/><path class="cls-8" d="M205.14,296.22A76.39,76.39,0,0,0,216,302.33a87.44,87.44,0,0,0,11.53,4.51,76.46,76.46,0,0,0,12,2.74,65.38,65.38,0,0,0,12.25.7,57.75,57.75,0,0,0,23.46-6.62,85.68,85.68,0,0,0,10.56-6.42,83.31,83.31,0,0,0,9.64-7.86A74.39,74.39,0,0,1,275.91,305a55.38,55.38,0,0,1-24.07,7.22A68.39,68.39,0,0,1,227,308.28,72.93,72.93,0,0,1,205.14,296.22Z"/><path class="cls-12" d="M312.06,232.31c0,7.58-8.1,13.72-18.08,13.72s-18.09-6.14-18.09-13.72S284,218.59,294,218.59,312.06,224.73,312.06,232.31Z"/><path class="cls-12" d="M224.34,232.31c0,7.58-8.1,13.72-18.08,13.72s-18.09-6.14-18.09-13.72,8.1-13.72,18.09-13.72S224.34,224.73,224.34,232.31Z"/><path class="cls-8" d="M160.78,180.71c7.88,7.4,20.93,6.58,28-1.77,4.42-5.21,6.36-12.36,9.45-18.65s8.35-12.34,14.78-12c5.21.26,9.66,4.66,14.85,5.1,6.84.58,12.78-6.14,14.58-13.52s7.19-18.94,5.86-26.44c-6.56-3.91-22.49-.83-29.73,1.11C191.12,121.91,169.24,150.66,160.78,180.71Z"/><path class="cls-8" d="M332.89,180.71c-7.88,7.4-20.93,6.58-28-1.77-4.42-5.21-6.37-12.36-9.45-18.65s-8.36-12.34-14.79-12c-5.2.26-9.65,4.66-14.85,5.1-6.84.58-12.78-6.14-14.58-13.52s-4.22-18.94-2.89-26.44c6.57-3.91,19.53-.83,26.77,1.11C302.56,121.91,324.44,150.66,332.89,180.71Z"/><path class="cls-8" d="M247.6,194.77a38.39,38.39,0,0,1,4.32,4.42,43.41,43.41,0,0,1,8.77,16.37c.23,1,.48,2.05.66,3.07s.35,2,.48,3.06c.3,2.05.52,4.11.68,6.18a57.88,57.88,0,0,1-.26,12.47l-.08.55h-.56c-3.7,0-7.41-.16-11.11-.24-1.85,0-3.7-.11-5.55-.18s-3.71-.14-5.56-.24c1.85-.1,3.7-.17,5.56-.24s3.7-.15,5.55-.18c3.7-.08,7.41-.19,11.11-.24l-.65.55a46.36,46.36,0,0,0,.31-6q0-3.06-.25-6.1a93.26,93.26,0,0,0-1.66-12.09,44.41,44.41,0,0,0-4.52-11.24A53.7,53.7,0,0,0,247.6,194.77Z"/><polyline class="cls-13" points="180.62 352.5 248.93 454.47 317.25 352.5"/><g class="cls-14"><path class="cls-3" d="M233.24,130a42.21,42.21,0,0,0-46.87,15.35,63.2,63.2,0,0,0-6,11.74c-1.76,4.06-3.63,8.22-6.62,11.61a30.88,30.88,0,0,1-10.69,8,30,30,0,0,1-13,2.61,30.92,30.92,0,0,0,23.08-11.07c5.69-6.77,7.17-16,12.36-23.42A41.45,41.45,0,0,1,207,129.39a42.75,42.75,0,0,1,13.19-1.94A37.31,37.31,0,0,1,233.24,130Z"/><path class="cls-3" d="M234.24,107a17.52,17.52,0,0,0-5.59-2.57,24.14,24.14,0,0,0-6.1-.68A40.11,40.11,0,0,0,210.48,106a52.19,52.19,0,0,0-20.73,12.84c-5.86,5.78-9.82,13.15-14.47,20a65.63,65.63,0,0,1-7.82,9.7,31.92,31.92,0,0,1-10.23,7,32.71,32.71,0,0,0,9.88-7.33,64.56,64.56,0,0,0,7.53-9.78c2.23-3.47,4.37-7,6.66-10.47a62.36,62.36,0,0,1,7.74-9.8,51.79,51.79,0,0,1,21.21-12.86,39.79,39.79,0,0,1,12.3-2,24.29,24.29,0,0,1,6.17.91A16.51,16.51,0,0,1,234.24,107Z"/><path class="cls-3" d="M256.71,137.64a23.74,23.74,0,0,1,10.21-7.08,27.71,27.71,0,0,1,12.46-1.37,28.33,28.33,0,0,1,11.79,4.39,34.32,34.32,0,0,1,9.12,8.7,42.54,42.54,0,0,1,5.58,11.28c1.42,3.91,2.81,7.84,5.22,11.18a27.89,27.89,0,0,0,21.06,11.48,27,27,0,0,1-12.09-2.95,27.89,27.89,0,0,1-9.59-8.08c-2.6-3.38-4-7.44-5.45-11.32a42.16,42.16,0,0,0-5.54-11,33.52,33.52,0,0,0-8.81-8.52A28.45,28.45,0,0,0,279.28,130C271.18,128.79,262.35,131.41,256.71,137.64Z"/><path class="cls-3" d="M257.16,111.16a35,35,0,0,1,11.23-4.68,38.26,38.26,0,0,1,12.22-.53,35.27,35.27,0,0,1,11.72,3.62A38.58,38.58,0,0,1,302.1,117c5.67,6,9.73,13.19,13.29,20.48a97.88,97.88,0,0,0,5.7,10.71,26,26,0,0,0,8.38,8.61,25.51,25.51,0,0,1-8.79-8.34,95.85,95.85,0,0,1-6-10.64c-3.69-7.19-7.71-14.33-13.32-20.12a37.65,37.65,0,0,0-9.47-7.33,36.49,36.49,0,0,0-11.4-3.66,37.59,37.59,0,0,0-12,.25A35.89,35.89,0,0,0,257.16,111.16Z"/><path class="cls-3" d="M369.78,230.36a50.42,50.42,0,0,1,13.54,13.81,57,57,0,0,1,7.38,18c1.56,6.31,2.46,12.74,3.77,19.05a92.89,92.89,0,0,0,2.37,9.36c.25.76.53,1.51.8,2.27l.4,1.13.48,1.1c.33.73.64,1.47,1,2.19l1.14,2.11a20.19,20.19,0,0,0,1.26,2c.46.65.85,1.35,1.37,2a41.26,41.26,0,0,0,3.16,3.58,48,48,0,0,0,7.64,5.79c5.44,3.44,11.35,6.23,16.54,10.21a58.62,58.62,0,0,1,21.18,31.86,60,60,0,0,0-21.64-31.25c-5.18-3.82-11-6.62-16.56-10a48.92,48.92,0,0,1-7.82-5.88,43.84,43.84,0,0,1-3.28-3.67c-.54-.63-.94-1.35-1.41-2a18.16,18.16,0,0,1-1.3-2.09l-1.17-2.16c-.34-.75-.66-1.5-1-2.25l-.48-1.13-.41-1.15c-.27-.77-.55-1.54-.8-2.31a94.19,94.19,0,0,1-2.35-9.47c-1.28-6.36-2.19-12.76-3.62-19.05a56.89,56.89,0,0,0-7-17.88A50.15,50.15,0,0,0,369.78,230.36Z"/><path class="cls-3" d="M333.47,259a21.65,21.65,0,0,1,8.71,4.2,30.39,30.39,0,0,1,6.56,7.2c3.59,5.48,5.64,11.76,7.6,17.91a271.08,271.08,0,0,0,14,36.17,25.69,25.69,0,0,0,5.26,7.9,37.41,37.41,0,0,0,7.9,5.4,88.7,88.7,0,0,1,8.33,5.09,71.05,71.05,0,0,1,7.63,6.1,78,78,0,0,1,12.65,14.81,76.89,76.89,0,0,1,8.48,17.47,76.84,76.84,0,0,0-8.89-17.2A78.68,78.68,0,0,0,399,349.53a82.46,82.46,0,0,0-7.61-6c-1.33-.9-2.67-1.8-4.07-2.61s-2.79-1.61-4.21-2.39a38.37,38.37,0,0,1-8.12-5.51,26.8,26.8,0,0,1-5.5-8.16,260.75,260.75,0,0,1-13.86-36.37c-1.87-6.18-3.82-12.42-7.28-17.88a30.19,30.19,0,0,0-6.3-7.27A21.49,21.49,0,0,0,333.47,259Z"/><path class="cls-3" d="M309.73,289.29a19.09,19.09,0,0,0,1.24,8.89,38.45,38.45,0,0,0,4.17,8,111.29,111.29,0,0,0,11.19,14.28c4,4.58,8.16,9,11.93,13.84A63.12,63.12,0,0,1,347.58,350a62.26,62.26,0,0,0-4.5-7.91,83.78,83.78,0,0,0-5.42-7.28c-3.86-4.68-8-9.12-12.08-13.65a103.3,103.3,0,0,1-11.09-14.55,38.59,38.59,0,0,1-4-8.26A18.59,18.59,0,0,1,309.73,289.29Z"/><path class="cls-3" d="M123.83,227.47a40.16,40.16,0,0,0-7.54,3.07,42.07,42.07,0,0,0-6.67,4.64,44.7,44.7,0,0,0-10.1,12.58A48.27,48.27,0,0,0,94.36,263c-.91,5.34-1.23,10.79-2,16.21A47.13,47.13,0,0,1,87.74,295,45.2,45.2,0,0,1,77.5,307.83a83.71,83.71,0,0,1-13.37,9.46c-4.74,2.72-9.61,5.17-14.54,7.49,4.83-2.53,9.65-5.06,14.29-7.91A83.15,83.15,0,0,0,77,307.26a46.1,46.1,0,0,0,9.94-12.68,46.23,46.23,0,0,0,4.46-15.47c.77-5.37,1.12-10.82,2.08-16.22a47,47,0,0,1,5.38-15.5,45,45,0,0,1,10.46-12.59,42,42,0,0,1,6.86-4.49A37.53,37.53,0,0,1,123.83,227.47Z"/><path class="cls-3" d="M149.68,253.08a52,52,0,0,0-26.4,26.56,63.67,63.67,0,0,0-4.54,18.49c-.72,6.35-.94,12.76-1.58,19.17A71.51,71.51,0,0,1,113,336.15a38.9,38.9,0,0,1-4.58,8.55,35.39,35.39,0,0,1-6.76,7c-5.1,4-10.86,6.91-16.3,10.27a54.27,54.27,0,0,0-7.77,5.59,27.68,27.68,0,0,0-6,7.41,27.72,27.72,0,0,1,5.86-7.59,54.47,54.47,0,0,1,7.68-5.83c5.41-3.45,11.12-6.45,16.08-10.45a36.32,36.32,0,0,0,6.53-6.87,37.77,37.77,0,0,0,4.44-8.38,71,71,0,0,0,4-18.62c.66-6.35.91-12.77,1.67-19.17s2-12.8,4.74-18.69a51,51,0,0,1,27.1-26.25Z"/><path class="cls-3" d="M177.62,283.9a36.17,36.17,0,0,0-6.88,5.43,35.21,35.21,0,0,0-5.37,6.85,40.29,40.29,0,0,0-2,3.85,36.91,36.91,0,0,0-1.53,4.07,70.22,70.22,0,0,0-1.88,8.54c-.53,2.89-1,5.8-1.78,8.67A50.13,50.13,0,0,1,145.1,344.1a55.92,55.92,0,0,0,5.27-7,52.48,52.48,0,0,0,4.1-7.73,55.93,55.93,0,0,0,2.81-8.27c.71-2.82,1.17-5.71,1.67-8.61a70.59,70.59,0,0,1,2-8.64,33.23,33.23,0,0,1,3.77-8.05,35,35,0,0,1,5.69-6.8A33.78,33.78,0,0,1,177.62,283.9Z"/></g></g></g></g></g></svg>