<svg xmlns="http://www.w3.org/2000/svg" xmlns:xlink="http://www.w3.org/1999/xlink" viewBox="0 0 500 500"><defs><style>.cls-1,.cls-13,.cls-6{fill:none;}.cls-2{isolation:isolate;}.cls-3{fill:#fff;}.cls-4{clip-path:url(#clip-path);}.cls-5{fill:#de8b98;}.cls-6{stroke:#fff;stroke-width:2px;}.cls-13,.cls-6{stroke-miterlimit:10;}.cls-7{fill:#000035;}.cls-8{fill:#f0c02a;}.cls-10,.cls-11,.cls-9{fill:#eba08c;}.cls-10,.cls-11{mix-blend-mode:multiply;}.cls-11{opacity:0.2;}.cls-12{opacity:0.38;}.cls-13{stroke:#000035;}</style><clipPath id="clip-path"><circle class="cls-1" cx="248.25" cy="252.52" r="215.95"/></clipPath></defs><g class="cls-2"><g id="BACKGROUND"><circle class="cls-3" cx="252.14" cy="252.52" r="215.95"/><g class="cls-4"><rect class="cls-5" width="500" height="500"/></g><circle class="cls-6" cx="248.25" cy="252.52" r="233.22"/><g class="cls-4"><path class="cls-7" d="M377.27,383.54c-.41-1.31-12.54-105.83-22.14-188.89-6.62-57.28-52.39-100.09-106.33-99.48h0c-54.28.62-99.36,45-104.42,102.84l-16.73,191.3Z"/><path class="cls-8" d="M376.23,375.92c-15.1-11.32-48.1-20-71.5-29.95-.35-.14-.67-.3-1-.45-2.84-1.22-5.56-2.47-8-3.74-1.11-.56-2.17-1.14-3.19-1.71-6.62-3.74-11.38-7.71-13-12.11-.17-.46-.33-.91-.49-1.37a118.94,118.94,0,0,1-54.22-.84c-.24.74-.49,1.48-.76,2.21-1.82,4.94-7.59,9.35-15.52,13.48-.74.38-1.48.77-2.26,1.15-2.19,1.08-4.54,2.13-7,3.18q-2,.84-4.05,1.68c-23.07,9.32-53.59,17.72-67.93,28.47-23.35,17.51-34.19,91.74-34.19,91.74H410.42S399.58,393.43,376.23,375.92Z"/><path class="cls-9" d="M279,326.59c-6.46-18.83-3.77-39.5-3.77-39.5l-23.48,1.62-25.15-1.62s4.17,20.06-1.82,38.66A118.94,118.94,0,0,0,279,326.59Z"/><path class="cls-9" d="M332.83,204.86c0,47-29.87,103-85,103s-85-56-85-103a85,85,0,1,1,170.08,0Z"/><path class="cls-7" d="M172.22,209.75c4.31-6.08,6.54-13.4,7.85-20.74,1.44-8.11,1.74-16.91-2.24-24.12a13,13,0,0,0-5.17-5.45c-4-2-9.09-.75-12.5,2.16s-5.41,7.15-6.81,11.42c-4.11,12.49-3.83,26-1.5,38.78,1.11,6.11.88,10.72,8,8A28,28,0,0,0,172.22,209.75Z"/><path class="cls-7" d="M326.91,209.75c-4.31-6.08-6.53-13.4-7.84-20.74-1.45-8.11-1.75-16.91,2.24-24.12a12.93,12.93,0,0,1,5.16-5.45c4-2,9.1-.75,12.51,2.16s5.41,7.15,6.81,11.42c4.11,12.49,3.83,26,1.5,38.78-1.11,6.11-.88,10.72-8,8A28,28,0,0,1,326.91,209.75Z"/><path class="cls-9" d="M355.42,219.16A30.83,30.83,0,0,1,346.67,235a23,23,0,0,1-9.88,6.12,11.8,11.8,0,0,1-10.34-1.67c-2.63-2-4.27-5.35-5.07-8.92-1.84-8.23.65-17.8,5.71-25,3.52-5,8.49-9,13.84-9.72C351.72,194.53,357.44,208.43,355.42,219.16Z"/><path class="cls-10" d="M325.05,231.8a14,14,0,0,0,7.33-2.64,2.58,2.58,0,0,0,1.32-2,2.54,2.54,0,0,0-.51-1.26,22.68,22.68,0,0,0-5.4-5.73,46.76,46.76,0,0,1,5.36-9.87c2.28-2.95,5.41-5.34,8.91-5.82a8.08,8.08,0,0,1,8.66,4.73s4.7,9.93-6.37,20.68C332.68,241.24,325.05,231.8,325.05,231.8Z"/><path class="cls-7" d="M350.72,209.23a7.48,7.48,0,0,0-2.61-3,8.38,8.38,0,0,0-3.69-1.32,10.3,10.3,0,0,0-7.27,2.31,20.46,20.46,0,0,0-5.15,6,71,71,0,0,0-3.62,7.25l-.21-.77a23.59,23.59,0,0,1,3.64,3.49,24.59,24.59,0,0,1,1.49,2,9.64,9.64,0,0,1,.67,1.13,2,2,0,0,1,.07,1.53,4.21,4.21,0,0,1-1.89,1.91,14.25,14.25,0,0,1-2.25,1.11,13.27,13.27,0,0,1-4.85.93,14.57,14.57,0,0,0,4.65-1.4,16.55,16.55,0,0,0,2.06-1.24,3.48,3.48,0,0,0,1.44-1.59c.2-.56-.24-1.13-.73-1.81A22.42,22.42,0,0,0,331,223.9a21.93,21.93,0,0,0-3.54-3.2l-.41-.3.21-.47a60.82,60.82,0,0,1,3.65-7.43,20.12,20.12,0,0,1,5.6-6.24,10.79,10.79,0,0,1,8.08-2.12A7.85,7.85,0,0,1,350.72,209.23Z"/><path class="cls-9" d="M137.82,219.16A30.88,30.88,0,0,0,146.56,235a23.06,23.06,0,0,0,9.89,6.12,11.8,11.8,0,0,0,10.34-1.67c2.62-2,4.26-5.35,5.06-8.92,1.85-8.23-.65-17.8-5.71-25-3.51-5-8.49-9-13.84-9.72C141.52,194.53,135.8,208.43,137.82,219.16Z"/><path class="cls-10" d="M168.18,231.8a14,14,0,0,1-7.33-2.64,2.58,2.58,0,0,1-1.32-2,2.64,2.64,0,0,1,.51-1.26,22.86,22.86,0,0,1,5.4-5.73,46.76,46.76,0,0,0-5.36-9.87c-2.28-2.95-5.41-5.34-8.91-5.82a8.07,8.07,0,0,0-8.65,4.73s-4.7,9.93,6.36,20.68C160.56,241.24,168.18,231.8,168.18,231.8Z"/><path class="cls-7" d="M142.52,209.23a7.83,7.83,0,0,1,6.18-5.09,10.81,10.81,0,0,1,8.08,2.12,20.21,20.21,0,0,1,5.59,6.24,59.4,59.4,0,0,1,3.65,7.43l.21.47-.41.3a22.36,22.36,0,0,0-3.54,3.2c-.54.59-1,1.22-1.52,1.86s-.92,1.25-.73,1.81a3.5,3.5,0,0,0,1.45,1.59,15.21,15.21,0,0,0,2.06,1.24,14.52,14.52,0,0,0,4.64,1.4,13.35,13.35,0,0,1-4.85-.93,14.25,14.25,0,0,1-2.25-1.11,4.26,4.26,0,0,1-1.89-1.91,2,2,0,0,1,.08-1.53,8.43,8.43,0,0,1,.66-1.13,24.71,24.71,0,0,1,1.5-2,23.08,23.08,0,0,1,3.63-3.49l-.2.77a71,71,0,0,0-3.62-7.25,20.65,20.65,0,0,0-5.16-6,10.29,10.29,0,0,0-7.27-2.31,8.47,8.47,0,0,0-3.69,1.32A7.38,7.38,0,0,0,142.52,209.23Z"/><path class="cls-7" d="M192.54,199.61a39.7,39.7,0,0,1,7.15-9.86,43.45,43.45,0,0,1,9.82-7.35,36.44,36.44,0,0,1,11.57-4.28,30.22,30.22,0,0,1,12.28.33l0,.2a58.2,58.2,0,0,0-11.86,1.43,53.39,53.39,0,0,0-11.22,3.74,42.39,42.39,0,0,0-9.87,6.66,39.21,39.21,0,0,0-7.67,9.23Z"/><path class="cls-7" d="M308.2,199.71a38.93,38.93,0,0,0-7.66-9.23,42.39,42.39,0,0,0-9.87-6.66,53.29,53.29,0,0,0-11.23-3.74,58.12,58.12,0,0,0-11.86-1.43l0-.2a30.17,30.17,0,0,1,12.27-.33,36.59,36.59,0,0,1,11.58,4.28,43.68,43.68,0,0,1,9.82,7.35,40,40,0,0,1,7.15,9.86Z"/><path class="cls-7" d="M226.62,256.41a53.73,53.73,0,0,0,6.1,5.49,44.17,44.17,0,0,0,6.84,4.43c1.18.66,2.44,1.17,3.67,1.72a34.31,34.31,0,0,0,3.84,1.23A30.76,30.76,0,0,0,251,270a24.07,24.07,0,0,0,4,0,21.15,21.15,0,0,0,3.93-.62c.64-.17,1.26-.42,1.9-.62.31-.11.63-.21.94-.33l.92-.42a34.6,34.6,0,0,0,6.92-4.15,47.4,47.4,0,0,0,6.1-5.41,61.35,61.35,0,0,0,5.39-6.21,49.4,49.4,0,0,1-10.8,12.5,32,32,0,0,1-7,4.52l-1,.46c-.32.13-.66.24-1,.36-.67.22-1.33.49-2,.67a22.06,22.06,0,0,1-4.2.7,26.09,26.09,0,0,1-4.24-.08,30.36,30.36,0,0,1-4.14-.84,32.7,32.7,0,0,1-4-1.38,35.22,35.22,0,0,1-3.72-1.91,44.53,44.53,0,0,1-6.75-4.87A43.51,43.51,0,0,1,226.62,256.41Z"/><path class="cls-7" d="M207,295.89A76,76,0,0,0,217.78,302a86.78,86.78,0,0,0,11.45,4.48,77.72,77.72,0,0,0,11.93,2.72,65.32,65.32,0,0,0,12.17.69,57.48,57.48,0,0,0,23.29-6.57,84.57,84.57,0,0,0,10.49-6.38,82.18,82.18,0,0,0,9.58-7.8,73.78,73.78,0,0,1-19.37,15.51,55.06,55.06,0,0,1-23.91,7.18,67.93,67.93,0,0,1-24.66-3.92A72.07,72.07,0,0,1,207,295.89Z"/><ellipse class="cls-11" cx="295.26" cy="236.55" rx="17.96" ry="13.63"/><ellipse class="cls-11" cx="208.14" cy="236.55" rx="17.96" ry="13.63"/><path class="cls-7" d="M249.92,201.32c.56,4.12,1.67,8.14,2.57,12.19l3,12.1,5.89,24.22.17.7-.7,0c-2.35.15-4.7.2-7,.31s-4.7.12-7.06.13c2.33-.34,4.67-.65,7-.9s4.67-.53,7-.73l-.54.74c-1.06-4-2.06-8.05-3.07-12.09s-1.94-8.08-2.84-12.14-1.74-8.13-2.55-12.22q-.61-3.06-1.09-6.14A48,48,0,0,1,249.92,201.32Z"/><path class="cls-7" d="M166.22,154.36c6,8.78,14.09,17.25,24.61,18.72,2.2.3,5-.1,5.7-2.2a5.32,5.32,0,0,0-.1-2.74A113.93,113.93,0,0,0,190,147.91c3.81,5.44,9.9,8.8,15.9,11.66a201.8,201.8,0,0,0,27.81,10.81c7.5,2.3,15.3,4.17,23.11,3.53,1.92-.15,4.36-1.06,4.25-3a3.91,3.91,0,0,0-1-2.08L250.25,156c5.48,4.5,12.43,6.71,19.22,8.73,20.37,6.07,42.19,11.33,62.62,5.49-9.91-26.43-29.77-50.94-55.76-62-9.93-4.22-20.63-6.9-31.42-6.86-11.69,0-23.14,3.21-34.16,7.08-10.09,3.55-20.1,7.77-28.55,14.32-12,9.33-20.28,23.06-24.17,37.77"/><path class="cls-7" d="M206.59,211.47a11.58,11.58,0,0,1,3.52-8.74A12.05,12.05,0,0,1,228,203a11.55,11.55,0,0,1,3.23,8.86,13.4,13.4,0,0,0-4.33-7.75,11.53,11.53,0,0,0-15.73-.26A13.34,13.34,0,0,0,206.59,211.47Z"/><path class="cls-7" d="M273.33,211.47a11.56,11.56,0,0,1,3.53-8.74,12.05,12.05,0,0,1,17.89.29,11.54,11.54,0,0,1,3.22,8.86,13.44,13.44,0,0,0-4.32-7.75,11.54,11.54,0,0,0-15.74-.26A13.4,13.4,0,0,0,273.33,211.47Z"/><g class="cls-12"><path class="cls-3" d="M199.24,124.83a73.53,73.53,0,0,0,41,28.28l-.44.61c-3.53-5.27-7.14-10.5-10.87-15.63s-7.55-10.2-11.48-15.18l.75-.62a92.27,92.27,0,0,0,19.34,16.23,98.81,98.81,0,0,0,23,10.55,97.74,97.74,0,0,0,24.93,4.4,91.67,91.67,0,0,0,25.25-2.28A91.06,91.06,0,0,1,285.45,154a98,98,0,0,1-25.14-4.14,97.42,97.42,0,0,1-23.24-10.54,89.8,89.8,0,0,1-19.58-16.36l.75-.63q5.88,7.51,11.44,15.25c3.71,5.17,7.34,10.39,10.81,15.71l.58.89-1-.28a72.18,72.18,0,0,1-40.82-29Z"/><path class="cls-3" d="M235.45,108.26a75.64,75.64,0,0,0,15.86,12.38,79.94,79.94,0,0,0,38.29,10.9,75.83,75.83,0,0,0,20-2.17l-4.89,1.31-5,.92-5.05.53-5.08.18a74.34,74.34,0,0,1-38.68-11l-4.22-2.83-4-3.11L238.92,112Z"/><path class="cls-3" d="M342.32,246.32l2.95,29.37c1,9.79,2,19.58,3.17,29.35s2.25,19.55,3.43,29.31l3.64,29.3c-.82-4.85-1.56-9.72-2.31-14.58l-2.09-14.62c-1.34-9.75-2.52-19.52-3.66-29.3s-2.08-19.58-2.94-29.38S342.89,256.15,342.32,246.32Z"/><path class="cls-3" d="M320.51,277c.55,5.38,1,10.78,1.41,16.17s.76,10.78,1.14,16.18.65,10.79.92,16.2l.37,8.1c.09,2.7.21,5.4.27,8.11-.28-2.69-.5-5.39-.76-8.08l-.65-8.09c-.42-5.39-.76-10.78-1.14-16.18s-.65-10.79-.92-16.19S320.64,282.36,320.51,277Z"/><path class="cls-3" d="M303.27,297.76c.26,2.9.44,5.79.64,8.68l.59,8.66.57,8.67.28,4.34c.07,1.45.18,2.89.24,4.34-.28-1.42-.49-2.86-.72-4.29l-.57-4.32c-.35-2.88-.59-5.77-.8-8.67s-.32-5.8-.35-8.7S303.12,300.66,303.27,297.76Z"/><path class="cls-3" d="M202.66,306.43c.39,4.15.48,8.29.5,12.44s-.1,8.28-.5,12.43c-.4-4.15-.49-8.29-.5-12.43S202.27,310.58,202.66,306.43Z"/><path class="cls-3" d="M171.48,270c0,7.19-.08,14.38-.25,21.57s-.47,14.37-.76,21.55-.74,14.37-1.23,21.54l-.79,10.76c-.31,3.58-.6,7.16-1,10.74l1-21.55,1-21.53Z"/><path class="cls-3" d="M152.91,260.75c-.23,8.11-.57,16.21-.93,24.31l-1.2,24.29-1.43,24.28-.8,12.13-.9,12.13.41-12.15.52-12.15,1.2-24.29L151.21,285C151.73,276.93,152.27,268.84,152.91,260.75Z"/></g><path class="cls-13" d="M222.26,332.41a112.16,112.16,0,0,0,59.32-1.24"/><path class="cls-7" d="M156.69,381.05a83.4,83.4,0,0,0-7.92,20.84A88.44,88.44,0,0,0,149.86,446a83.94,83.94,0,0,0,8.93,20.42l-3-4.75-2.61-5L151,451.53l-1.85-5.32a82.44,82.44,0,0,1-1.1-44.5l1.59-5.4,2-5.27,2.36-5.1Z"/><path class="cls-7" d="M351.76,381.05l2.75,4.89,2.36,5.1,2,5.27,1.59,5.4a82.57,82.57,0,0,1-1.09,44.5l-1.86,5.32-2.22,5.17-2.61,5-3,4.75A83.94,83.94,0,0,0,358.59,446a88.44,88.44,0,0,0,1.09-44.11A83.4,83.4,0,0,0,351.76,381.05Z"/></g></g></g></svg>