<?xml version="1.0" encoding="iso-8859-1"?>
<!-- Uploaded to: SVG Repo, www.svgrepo.com, Generator: SVG Repo Mixer Tools -->
<svg height="800px" width="800px" version="1.1" id="Layer_1" xmlns="http://www.w3.org/2000/svg" xmlns:xlink="http://www.w3.org/1999/xlink" 
	 viewBox="0 0 512 512" xml:space="preserve">
<path style="fill:#88888F;" d="M168.327,71.163v326.833c-14.203-7.079-31.466-11.243-50.099-11.243
	c-48.421,0-87.673,28.038-87.673,62.624S69.808,512,118.228,512s87.673-28.038,87.673-62.624V226.403l237.969-54.084v150.528
	c-14.203-7.079-31.466-11.243-50.099-11.243c-48.421,0-87.673,28.038-87.673,62.624s39.252,62.624,87.673,62.624
	s87.673-28.038,87.673-62.624V0L168.327,71.163z"/>
<path style="fill:#797781;" d="M324.886,35.581v163.781l118.985-27.042v150.528c-14.203-7.079-31.466-11.243-50.099-11.243
	c-48.421,0-87.673,28.038-87.673,62.624s39.252,62.624,87.673,62.624s87.673-28.038,87.673-62.624V0L324.886,35.581z"/>
</svg>