<?xml version="1.0" encoding="utf-8"?>
<!-- Generator: Adobe Illustrator 27.5.0, SVG Export Plug-In . SVG Version: 6.00 Build 0)  -->
<svg version="1.1" id="Layer_1" xmlns="http://www.w3.org/2000/svg" xmlns:xlink="http://www.w3.org/1999/xlink" x="0px" y="0px"
	 viewBox="0 0 389.303 229.23" style="enable-background:new 0 0 389.303 229.23;" xml:space="preserve">
<g>
	<g>
		<g>
			<g>
				
					<ellipse transform="matrix(0.2669 -0.9637 0.9637 0.2669 -9.8887 171.7691)" style="fill:#101214;" cx="107.963" cy="92.385" rx="88.946" ry="88.946"/>
				<path style="fill:#434345;" d="M107.962,177.927c-47.168,0-85.542-38.374-85.542-85.542c0-47.168,38.374-85.542,85.542-85.542
					c47.168,0,85.542,38.374,85.542,85.542C193.505,139.553,155.13,177.927,107.962,177.927z M107.962,7.33
					c-46.899,0-85.054,38.155-85.054,85.054c0,46.899,38.155,85.055,85.054,85.055s85.055-38.155,85.055-85.055
					C193.017,45.485,154.861,7.33,107.962,7.33z"/>
				<path style="fill:#434345;" d="M107.962,171.765c-43.77,0-79.38-35.61-79.38-79.38c0-43.77,35.61-79.38,79.38-79.38
					c43.77,0,79.38,35.61,79.38,79.38C187.342,136.155,151.733,171.765,107.962,171.765z M107.962,13.493
					c-43.501,0-78.892,35.391-78.892,78.892c0,43.501,35.391,78.892,78.892,78.892c43.501,0,78.892-35.391,78.892-78.892
					C186.855,48.883,151.464,13.493,107.962,13.493z"/>
				<path style="fill:#434345;" d="M107.962,164.023c-39.502,0-71.639-32.137-71.639-71.639c0-39.501,32.137-71.639,71.639-71.639
					c39.502,0,71.639,32.137,71.639,71.639C179.601,131.886,147.464,164.023,107.962,164.023z M107.962,21.234
					c-39.233,0-71.151,31.918-71.151,71.151c0,39.233,31.918,71.151,71.151,71.151c39.233,0,71.151-31.918,71.151-71.151
					C179.113,53.152,147.195,21.234,107.962,21.234z"/>
				<path style="fill:#434345;" d="M107.962,158.165c-36.271,0-65.781-29.509-65.781-65.781c0-36.272,29.509-65.781,65.781-65.781
					c36.272,0,65.781,29.509,65.781,65.781C173.743,128.656,144.234,158.165,107.962,158.165z M107.962,27.092
					c-36.003,0-65.293,29.29-65.293,65.293c0,36.003,29.29,65.293,65.293,65.293c36.003,0,65.293-29.29,65.293-65.293
					C173.255,56.382,143.965,27.092,107.962,27.092z"/>
				<path style="fill:#434345;" d="M107.962,151.299c-32.485,0-58.914-26.429-58.914-58.914c0-32.485,26.429-58.914,58.914-58.914
					c32.486,0,58.914,26.429,58.914,58.914C166.877,124.87,140.448,151.299,107.962,151.299z M107.962,33.958
					c-32.216,0-58.426,26.21-58.426,58.426c0,32.217,26.21,58.427,58.426,58.427c32.217,0,58.427-26.21,58.427-58.427
					C166.389,60.168,140.179,33.958,107.962,33.958z"/>
				<path style="fill:#434345;" d="M107.962,144.534c-28.756,0-52.15-23.394-52.15-52.15c0-28.756,23.394-52.15,52.15-52.15
					c28.756,0,52.15,23.394,52.15,52.15C160.112,121.14,136.718,144.534,107.962,144.534z M107.962,40.722
					c-28.486,0-51.662,23.175-51.662,51.662c0,28.487,23.176,51.662,51.662,51.662s51.662-23.176,51.662-51.662
					C159.625,63.898,136.449,40.722,107.962,40.722z"/>
				<path style="fill:#434345;" d="M107.962,136.186c-24.152,0-43.801-19.649-43.801-43.802c0-24.152,19.649-43.801,43.801-43.801
					c24.152,0,43.802,19.649,43.802,43.801C151.764,116.537,132.115,136.186,107.962,136.186z M107.962,49.155
					c-23.837,0-43.229,19.393-43.229,43.229c0,23.837,19.393,43.23,43.229,43.23c23.837,0,43.23-19.393,43.23-43.23
					C151.192,68.548,131.799,49.155,107.962,49.155z"/>
				<linearGradient id="SVGID_1_" gradientUnits="userSpaceOnUse" x1="90.0906" y1="72.9242" x2="148.3717" y2="136.3858">
					<stop  offset="0.1124" style="stop-color:#F0C83B"/>
					<stop  offset="0.2416" style="stop-color:#F1563C"/>
					<stop  offset="0.2688" style="stop-color:#E65352"/>
					<stop  offset="0.3232" style="stop-color:#D34F7A"/>
					<stop  offset="0.3666" style="stop-color:#C74C92"/>
					<stop  offset="0.3933" style="stop-color:#C34B9B"/>
					<stop  offset="0.6068" style="stop-color:#00B3C1"/>
					<stop  offset="0.8146" style="stop-color:#00B36C"/>
					<stop  offset="1" style="stop-color:#00B3C1"/>
				</linearGradient>
				<circle style="fill:url(#SVGID_1_);" cx="107.962" cy="92.385" r="36.897"/>
				<circle style="fill:#FFFFFF;" cx="107.963" cy="92.384" r="5.37"/>
			</g>
			<path style="opacity:0.26;fill:#FFFFFF;" d="M173.577,134.447c-0.761,0.779-1.547,1.536-2.372,2.248
				c2.328-3.415,5.473-6.251,7.528-9.865c0.658-1.156,1.184-2.366,1.519-3.655c0.077-0.298-0.332-0.359-0.516-0.283
				c-1.151,0.479-2.12,1.306-2.982,2.191c-0.924,0.949-1.75,1.988-2.592,3.008c-0.769,0.931-1.608,1.788-2.419,2.682
				c-0.95,1.047-1.879,2.114-2.879,3.113c-0.81,0.809-1.678,1.609-2.653,2.229c0.482-1.006,1.14-1.926,1.796-2.823
				c0.731-0.999,1.437-2.012,2.148-3.026c1.211-1.73,2.523-3.43,3.385-5.371c0.408-0.919,0.768-2.004,0.526-3.016
				c-0.053-0.22-0.332-0.275-0.516-0.188c-1.533,0.722-2.551,2.051-3.668,3.271c-1.284,1.403-2.724,2.676-4.159,3.92
				c-1.378,1.195-2.816,2.326-4.172,3.546c-1.064,0.957-2.079,1.968-3.184,2.881c-0.92,0.76-1.999,1.605-3.195,1.914
				c1.353-2.167,3.144-4.025,4.753-6c0.686-0.843,1.338-1.709,2.037-2.542c0.719-0.856,1.44-1.721,2.032-2.672
				c0.572-0.919,1.092-1.976,0.979-3.089c-0.024-0.237-0.358-0.26-0.522-0.19c-4.824,2.048-8.057,6.411-12.386,9.205
				c-0.98,0.633-2.015,1.166-3.109,1.559c0.538-1.061,1.377-1.938,2.234-2.76c1.082-1.036,2.243-2.023,3.108-3.257
				c0.477-0.681,0.828-1.424,1.023-2.232c0.059-0.246-0.229-0.341-0.412-0.323c-1.938,0.197-3.651,1.267-5.177,2.408
				c-1.634,1.221-3.156,2.61-4.915,3.656c-0.757,0.451-1.563,0.821-2.419,1.027c0.118-0.477,0.414-0.899,0.735-1.273
				c0.546-0.636,1.201-1.179,1.845-1.712c0.554-0.458,1.134-0.898,1.636-1.414c0.774-0.796,1.48-1.668,2.159-2.546
				c0.776-1.002,1.508-2.037,2.231-3.078c0.186-0.269,0.008-0.603-0.333-0.532c-1.817,0.38-3.387,1.413-4.834,2.532
				c-1.513,1.17-2.924,2.477-4.511,3.549c-0.222,0.15-0.447,0.294-0.676,0.431c0.75-0.704,1.494-1.414,2.197-2.166
				c1.194-1.276,2.348-2.684,2.972-4.337c0.111-0.294-0.123-0.456-0.392-0.434c-1.799,0.155-3.371,1.453-4.719,2.541
				c-0.69,0.557-1.362,1.142-2.081,1.66c-0.86,0.62-1.796,1.151-2.734,1.643c-0.763,0.399-1.551,0.75-2.356,1.056
				c0.614-0.716,1.285-1.382,1.973-2.028c0.182-0.171,0.26-0.507-0.031-0.616c-0.443-0.165-0.949-0.136-1.41-0.098
				c-0.602,0.05-1.198,0.167-1.786,0.302c-1.117,0.256-2.236,0.57-3.304,0.989c-0.105,0.041-0.218,0.12-0.296,0.219
				c-0.163-0.052-0.366-0.006-0.503,0.074c-0.991,0.577-1.932,1.26-2.825,1.978c-0.47,0.378-0.932,0.773-1.344,1.214
				c-0.317,0.338-0.653,0.717-0.798,1.167c-0.095,0.296,0.217,0.443,0.464,0.406c0.934-0.14,1.872-0.252,2.815-0.29
				c-0.739,0.442-1.503,0.842-2.29,1.193c-0.967,0.431-1.965,0.836-2.984,1.125c-0.854,0.243-1.729,0.406-2.594,0.602
				c-1.69,0.383-3.683,0.811-4.92,2.126c-0.185,0.197-0.202,0.481,0.097,0.576c1.683,0.536,3.504,0.505,5.245,0.36
				c1.026-0.085,2.044-0.229,3.062-0.38c-0.249,0.094-0.502,0.182-0.757,0.263c-1.826,0.58-3.726,0.875-5.582,1.337
				c-1.776,0.442-3.559,1.032-4.984,2.222c-0.268,0.223-0.116,0.571,0.21,0.591c1.265,0.079,2.531,0.146,3.798,0.16
				c1.11,0.012,2.231-0.001,3.336-0.114c0.716-0.073,1.422-0.255,2.125-0.406c0.817-0.175,1.649-0.352,2.486-0.385
				c0.492-0.02,1.007,0.01,1.454,0.213c-0.693,0.543-1.483,0.946-2.306,1.26c-1.912,0.73-3.945,1.062-5.917,1.587
				c-1.841,0.49-3.743,1.17-5.1,2.568c-0.128,0.132-0.231,0.417-0.002,0.523c0.755,0.349,1.556,0.534,2.385,0.582
				c1.505,0.088,2.999-0.211,4.483-0.417c1.177-0.163,2.385-0.276,3.551-0.041c-0.987,0.614-2.047,1.095-3.151,1.471
				c-4.878,1.663-10.305,1.492-14.904,4.005c-0.157,0.086-0.346,0.361-0.175,0.527c0.802,0.779,1.954,1.027,3.03,1.148
				c1.113,0.125,2.239,0.097,3.357,0.064c1.087-0.032,2.171-0.005,3.257-0.021c2.547-0.036,5.115-0.289,7.654-0.006
				c-0.984,0.746-2.316,1.069-3.483,1.318c-1.401,0.3-2.824,0.469-4.235,0.71c-1.798,0.307-3.576,0.733-5.369,1.073
				c-1.867,0.354-3.758,0.695-5.655,0.831c-1.65,0.119-3.324,0.093-4.841,0.847c-0.183,0.091-0.313,0.343-0.173,0.522
				c0.643,0.818,1.717,1.209,2.691,1.459c2.058,0.528,4.205,0.554,6.313,0.677c1.236,0.072,2.468,0.147,3.706,0.193
				c1.111,0.041,2.241,0.097,3.328,0.343c-1.091,0.38-2.257,0.565-3.394,0.698c-1.405,0.164-2.817,0.231-4.228,0.327
				c-1.203,0.082-2.397,0.208-3.604,0.234c-1.322,0.028-2.65,0.031-3.967,0.167c-1.229,0.127-2.478,0.374-3.568,0.979
				c-0.174,0.097-0.38,0.456-0.098,0.58c1.219,0.537,2.494,0.875,3.809,1.076c4.11,0.63,8.284-0.078,12.407,0.215
				c-1.07,0.206-2.151,0.353-3.234,0.466c-1.558,0.163-3.121,0.255-4.684,0.354c-1.101,0.069-2.196,0.023-3.297-0.012
				c-1.218-0.039-2.448-0.065-3.661,0.075c-1.059,0.122-2.131,0.386-2.988,1.049c-0.162,0.125-0.189,0.392-0.002,0.505
				c1.537,0.922,3.307,1.344,5.071,1.562c1.655,0.205,3.326,0.224,4.992,0.22c1.699-0.004,3.397,0.018,5.096,0.031
				c2.687,0.02,5.373-0.013,8.058-0.082c-0.586,0.117-1.173,0.229-1.762,0.333c-6.521,1.152-13.175,1.518-19.777,0.962
				c-0.374-0.032-0.876,0.512-0.357,0.697c0.444,0.159,0.891,0.31,1.341,0.454c3.492,1.112,7.126,1.769,10.77,2.14
				c-0.011,0.04,0.004,0.077,0.07,0.094c0.744,0.195,1.496,0.353,2.256,0.476c5.983,0.973,12.157-0.037,18.054-1.333
				c1.224-0.217,2.444-0.462,3.655-0.74c2.263-0.518,4.499-1.147,6.703-1.876c3.706-1.098,7.345-2.411,10.832-4.079
				c0.006,0.014,0.012,0.028,0.017,0.042c0.316-0.136,0.631-0.272,0.944-0.417c3.881-1.797,7.524-4.034,11.016-6.493
				c1.938-1.277,3.819-2.641,5.629-4.094c0.969-0.778,1.918-1.583,2.848-2.408c4.674-3.82,9.296-8.037,12.245-13.334
				c0.374-0.672,0.717-1.36,1.026-2.065c0.028-0.063,0.008-0.098-0.03-0.114c1.969-3.088,3.709-6.346,5.002-9.775
				c0.167-0.441,0.325-0.886,0.476-1.333c0.176-0.522-0.561-0.466-0.768-0.153c-3.658,5.524-8.074,10.515-13.022,14.916
				c-0.447,0.397-0.899,0.788-1.355,1.176c1.72-2.064,3.413-4.15,5.063-6.27c1.044-1.341,2.08-2.686,3.137-4.016
				c1.036-1.304,2.058-2.627,2.924-4.052c0.923-1.519,1.69-3.169,1.92-4.947c0.028-0.217-0.198-0.361-0.397-0.312
				c-1.051,0.261-1.923,0.938-2.676,1.693c-0.862,0.865-1.604,1.845-2.33,2.825c-0.656,0.885-1.299,1.773-2.036,2.593
				C175.714,132.158,174.671,133.327,173.577,134.447z M116.362,175.277c-0.209,0.021-0.418,0.045-0.627,0.063
				c-2.855,0.252-5.763,0.272-8.594-0.211C110.207,175.372,113.289,175.414,116.362,175.277z M179.952,139.978
				c-1.378,2.52-3.197,4.788-5.166,6.871c-0.144,0.153-0.292,0.302-0.439,0.453C176.361,144.977,178.24,142.534,179.952,139.978z"/>
			<path style="opacity:0.26;fill:#FFFFFF;" d="M114.598,15.576c1.098-0.102,2.194-0.089,3.296-0.086
				c1.219,0.002,2.449-0.008,3.657-0.184c1.055-0.154,2.118-0.449,2.955-1.137c0.159-0.13,0.178-0.398-0.013-0.504
				c-1.564-0.876-3.346-1.245-5.116-1.411c-1.66-0.155-3.332-0.125-4.996-0.072c-1.698,0.054-3.396,0.083-5.095,0.121
				c-2.686,0.06-5.37,0.173-8.052,0.322c0.582-0.134,1.166-0.264,1.751-0.386c6.484-1.345,13.124-1.91,19.74-1.55
				c0.375,0.02,0.86-0.538,0.336-0.708c-0.449-0.146-0.9-0.284-1.354-0.414c-3.523-1.008-7.175-1.556-10.828-1.818
				c0.01-0.04-0.007-0.077-0.073-0.092c-0.75-0.172-1.507-0.308-2.269-0.409c-6.009-0.794-12.151,0.398-18.006,1.87
				c-1.217,0.254-2.429,0.535-3.632,0.848c-2.247,0.586-4.463,1.281-6.644,2.074c-4.057,1.335-8.026,2.924-11.784,4.966
				c-0.302,0.164-0.6,0.336-0.897,0.508c0.008,0.013,0.015,0.026,0.023,0.039c-3.42,1.803-6.644,3.94-9.737,6.258
				c-1.9,1.334-3.739,2.753-5.505,4.26c-0.945,0.807-1.87,1.639-2.775,2.492c-4.559,3.958-9.053,8.31-11.843,13.692
				c-0.354,0.683-0.676,1.381-0.964,2.094c-0.026,0.063-0.005,0.098,0.033,0.113c-1.877,3.146-3.518,6.453-4.709,9.919
				c-0.153,0.446-0.298,0.895-0.436,1.346c-0.161,0.528,0.574,0.449,0.773,0.13c3.492-5.63,7.757-10.751,12.573-15.297
				c0.435-0.41,0.875-0.814,1.319-1.215c-1.658,2.114-3.288,4.25-4.874,6.418c-1.004,1.371-1.999,2.746-3.016,4.108
				c-0.997,1.334-1.979,2.687-2.802,4.137c-0.878,1.546-1.595,3.218-1.772,5.002c-0.021,0.218,0.209,0.355,0.406,0.299
				c1.043-0.292,1.894-0.994,2.624-1.772c0.836-0.89,1.549-1.892,2.245-2.893c0.629-0.905,1.246-1.811,1.958-2.653
				c1.011-1.195,2.019-2.395,3.079-3.548c0.737-0.802,1.501-1.582,2.304-2.317c-2.226,3.483-5.284,6.41-7.231,10.084
				c-0.623,1.176-1.113,2.4-1.409,3.699c-0.068,0.3,0.343,0.349,0.524,0.267c1.137-0.514,2.08-1.368,2.915-2.279
				c0.895-0.976,1.69-2.039,2.501-3.084c0.741-0.953,1.554-1.835,2.338-2.752c0.918-1.074,1.815-2.169,2.785-3.197
				c0.785-0.833,1.63-1.658,2.586-2.307c-0.452,1.019-1.082,1.959-1.711,2.875c-0.701,1.021-1.377,2.054-2.057,3.089
				c-1.159,1.765-2.42,3.504-3.224,5.47c-0.381,0.931-0.708,2.026-0.436,3.03c0.059,0.219,0.34,0.265,0.522,0.172
				c1.511-0.768,2.489-2.126,3.569-3.379c1.241-1.441,2.643-2.756,4.041-4.042c1.342-1.235,2.745-2.409,4.065-3.668
				c1.036-0.988,2.02-2.029,3.097-2.975c0.896-0.787,1.95-1.664,3.136-2.008c-1.288,2.207-3.023,4.116-4.572,6.138
				c-0.661,0.863-1.286,1.748-1.96,2.601c-0.693,0.877-1.388,1.764-1.952,2.732c-0.545,0.936-1.032,2.008-0.886,3.117
				c0.031,0.236,0.366,0.249,0.528,0.174c4.761-2.191,7.862-6.648,12.107-9.569c0.961-0.662,1.979-1.226,3.061-1.651
				c-0.507,1.076-1.318,1.978-2.152,2.825c-1.05,1.067-2.181,2.089-3.009,3.348c-0.456,0.695-0.786,1.448-0.956,2.261
				c-0.052,0.247,0.239,0.335,0.421,0.311c1.931-0.255,3.612-1.376,5.103-2.561c1.597-1.269,3.077-2.702,4.804-3.801
				c0.744-0.473,1.538-0.867,2.388-1.099c-0.104,0.48-0.387,0.911-0.697,1.294c-0.527,0.651-1.166,1.214-1.793,1.765
				c-0.54,0.475-1.107,0.932-1.593,1.463c-0.75,0.819-1.43,1.712-2.082,2.609c-0.745,1.025-1.447,2.081-2.138,3.143
				c-0.178,0.274,0.01,0.603,0.349,0.522c1.805-0.434,3.343-1.513,4.757-2.674c1.478-1.214,2.849-2.563,4.404-3.681
				c0.217-0.156,0.438-0.307,0.662-0.451c-0.729,0.726-1.451,1.458-2.132,2.23c-1.155,1.311-2.267,2.753-2.841,4.424
				c-0.102,0.297,0.136,0.453,0.404,0.421c1.794-0.208,3.326-1.552,4.642-2.68c0.673-0.577,1.327-1.181,2.031-1.722
				c0.841-0.645,1.761-1.204,2.684-1.723c0.751-0.422,1.528-0.796,2.324-1.125c-0.592,0.734-1.243,1.419-1.912,2.086
				c-0.177,0.176-0.245,0.515,0.049,0.615c0.448,0.152,0.952,0.108,1.413,0.056c0.6-0.068,1.192-0.203,1.776-0.355
				c1.109-0.289,2.218-0.636,3.273-1.087c0.146-0.062,0.303-0.198,0.359-0.36c0.126-0.004,0.256-0.047,0.352-0.107
				c0.973-0.607,1.894-1.317,2.765-2.061c0.459-0.392,0.908-0.801,1.308-1.253c0.307-0.348,0.632-0.736,0.763-1.19
				c0.087-0.299-0.23-0.436-0.476-0.392c-0.93,0.167-1.864,0.308-2.805,0.373c0.726-0.464,1.478-0.887,2.253-1.261
				c0.954-0.46,1.939-0.894,2.949-1.214c0.846-0.268,1.715-0.458,2.574-0.679c1.678-0.433,3.657-0.92,4.855-2.271
				c0.179-0.202,0.188-0.486-0.114-0.573c-1.698-0.486-3.517-0.4-5.253-0.203c-1.023,0.116-2.036,0.289-3.049,0.471
				c0.247-0.102,0.496-0.196,0.749-0.285c1.807-0.634,3.698-0.986,5.54-1.503c1.762-0.494,3.527-1.137,4.916-2.369
				c0.261-0.231,0.099-0.574-0.228-0.585c-1.266-0.042-2.534-0.071-3.801-0.047c-1.109,0.021-2.23,0.068-3.331,0.214
				c-0.714,0.094-1.414,0.298-2.112,0.468c-0.812,0.199-1.638,0.4-2.474,0.459c-0.491,0.035-1.007,0.02-1.46-0.17
				c0.676-0.564,1.454-0.989,2.268-1.328c1.889-0.787,3.912-1.179,5.866-1.762c1.826-0.544,3.707-1.281,5.022-2.718
				c0.124-0.135,0.219-0.424-0.014-0.523c-0.765-0.326-1.571-0.487-2.401-0.511c-1.507-0.043-2.992,0.3-4.468,0.55
				c-1.171,0.198-2.375,0.347-3.548,0.147c0.968-0.644,2.013-1.155,3.106-1.564c4.826-1.808,10.256-1.798,14.778-4.447
				c0.154-0.09,0.335-0.371,0.159-0.532c-0.825-0.754-1.983-0.969-3.062-1.057c-1.117-0.092-2.241-0.03-3.357,0.036
				c-1.085,0.064-2.17,0.07-3.255,0.118c-2.545,0.112-5.104,0.441-7.65,0.234c0.961-0.775,2.284-1.137,3.442-1.422
				c1.391-0.341,2.809-0.553,4.212-0.836c1.788-0.361,3.553-0.839,5.335-1.232c1.855-0.41,3.735-0.806,5.628-0.999
				c1.646-0.168,3.319-0.192,4.813-0.991c0.18-0.096,0.303-0.353,0.158-0.526c-0.667-0.799-1.752-1.157-2.734-1.378
				c-2.072-0.466-4.219-0.429-6.33-0.489c-1.238-0.035-2.471-0.073-3.71-0.083c-1.112-0.009-2.243-0.03-3.337-0.243
				c1.079-0.412,2.239-0.632,3.372-0.799c1.399-0.206,2.809-0.315,4.216-0.453c1.2-0.118,2.389-0.28,3.595-0.341
				c1.322-0.067,2.648-0.11,3.961-0.285c1.225-0.164,2.466-0.448,3.537-1.085c0.171-0.102,0.366-0.467,0.081-0.583
				c-1.234-0.5-2.519-0.8-3.84-0.962c-4.127-0.507-8.278,0.324-12.408,0.155c1.063-0.238,2.14-0.417,3.219-0.562
				C111.478,15.86,113.039,15.721,114.598,15.576z M37.637,45.107c1.302-2.56,3.054-4.881,4.959-7.022
				c0.14-0.157,0.283-0.31,0.425-0.466C41.077,40.003,39.272,42.502,37.637,45.107z M100.069,7.781
				c0.209-0.027,0.417-0.057,0.626-0.082c2.846-0.336,5.752-0.443,8.596-0.045C106.219,7.503,103.137,7.552,100.069,7.781z"/>
			<g>
				<path style="fill:#FFFFFF;" d="M44.639,39.098c-0.229-0.069-0.503,0.013-0.69,0.151c-0.562,0.417-1.105,0.879-1.572,1.401
					c-0.203,0.227-0.399,0.469-0.554,0.734c-0.335,0.462-0.621,0.964-0.81,1.494c-0.06,0.168-0.027,0.362,0.126,0.469
					c0.171,0.119,0.377,0.072,0.556,0.01c0.785-0.27,1.458-0.912,1.993-1.525c0.569-0.653,1.113-1.41,1.268-2.279
					C44.995,39.343,44.826,39.155,44.639,39.098z"/>
				<path style="fill:#FFFFFF;" d="M42.954,41.905c0.001,0.006,0.004,0.011,0.005,0.017c0-0.001,0.001-0.002,0.001-0.004
					c-0.001-0.005-0.004-0.012-0.006-0.017C42.954,41.903,42.954,41.904,42.954,41.905z"/>
			</g>
			<path style="fill:#FFFFFF;" d="M49.219,42.988c0.002-0.07-0.019-0.134-0.062-0.192c-0.032-0.032-0.064-0.063-0.097-0.095
				c-0.041-0.019-0.083-0.039-0.125-0.058c-0.075-0.023-0.15-0.028-0.225-0.014c-0.085,0.003-0.166,0.023-0.243,0.061
				c-0.121,0.042-0.225,0.1-0.337,0.167c-0.011,0.007-0.022,0.014-0.033,0.021c-0.005,0.003-0.009,0.007-0.014,0.011
				c-0.049,0.039-0.11,0.09-0.155,0.133c-0.008,0.007-0.014,0.015-0.021,0.023c-0.037,0.048-0.075,0.096-0.112,0.144
				c-0.002,0.002-0.004,0.005-0.005,0.007c-0.002,0.004-0.005,0.008-0.007,0.012c-0.02,0.035-0.063,0.122-0.076,0.159
				c-0.002,0.005-0.003,0.01-0.005,0.015c-0.01,0.031-0.03,0.128-0.033,0.16c0,0.005-0.001,0.01-0.001,0.015
				c-0.001,0.032,0.007,0.122,0.013,0.153c0.001,0.005,0.002,0.011,0.003,0.016c0.002,0.009,0.012,0.033,0.023,0.058
				c-0.001,0.03,0.002,0.06,0.011,0.091c0.012,0.058,0.041,0.105,0.086,0.14c0.037,0.045,0.084,0.074,0.143,0.087
				c0.084,0.021,0.173,0.02,0.259,0.002c0,0,0,0,0.001,0c0.008,0.001,0.015,0.002,0.023,0.003c0.02,0.002,0.041,0.002,0.061,0.002
				c0.053-0.005,0.106-0.01,0.16-0.016c0.055-0.018,0.109-0.036,0.164-0.053c0.054-0.03,0.107-0.061,0.161-0.091
				c0.078-0.05,0.142-0.113,0.193-0.188c0.039-0.041,0.069-0.087,0.088-0.14c0.028-0.044,0.045-0.093,0.05-0.145
				c0.014-0.039,0.016-0.08,0.011-0.12c0.003-0.003,0.006-0.007,0.008-0.011c0.046-0.066,0.074-0.138,0.084-0.216
				C49.227,43.083,49.23,43.036,49.219,42.988z"/>
			<path style="fill:#FFFFFF;" d="M58.179,44.559c-0.268-0.124-0.544-0.015-0.782,0.123c-0.89,0.518-1.751,1.129-2.449,1.891
				c-0.204,0.223-0.389,0.458-0.556,0.705c-0.381,0.451-0.73,0.929-1.026,1.44c-0.176,0.304-0.067,0.627,0.305,0.655
				c0.441,0.033,0.875-0.116,1.274-0.337c0.058-0.018,0.115-0.038,0.167-0.061c0.155-0.066,0.305-0.18,0.415-0.321
				c0.112-0.084,0.219-0.169,0.321-0.253c0.74-0.611,1.399-1.316,1.946-2.105c0.244-0.352,0.467-0.734,0.609-1.14
				C58.484,44.925,58.411,44.667,58.179,44.559z"/>
			<path style="fill:#FFFFFF;" d="M65.689,47.283c-0.021-0.045-0.042-0.091-0.063-0.136c-0.062-0.085-0.144-0.141-0.246-0.17
				c-0.052-0.016-0.106-0.024-0.162-0.024L65.2,46.956c-0.052-0.002-0.104,0.002-0.156,0.015l-0.001,0h0c0,0,0,0,0,0
				c-0.012,0.003-0.126,0.04-0.166,0.054c-0.009,0.003-0.015,0.005-0.016,0.005c-0.003,0.001-0.005,0.002-0.008,0.003
				c-0.014,0.006-0.027,0.012-0.041,0.018c-0.022,0.01-0.043,0.019-0.064,0.029c-0.013,0.006-0.027,0.012-0.04,0.019
				c-0.113,0.054-0.145,0.074-0.2,0.12c-0.001,0.001-0.002,0.002-0.003,0.003c0,0,0.001,0,0.001-0.001
				c-0.001,0.001-0.003,0.003-0.005,0.004c-0.089,0.05-0.179,0.098-0.265,0.152c-0.042,0.026-0.081,0.056-0.121,0.085
				c-0.064,0.036-0.125,0.077-0.179,0.131c-0.019,0.019-0.037,0.038-0.055,0.058c-0.029,0.038-0.059,0.075-0.088,0.113
				c-0.039,0.055-0.062,0.116-0.07,0.181c-0.014,0.039-0.017,0.078-0.008,0.118c-0.002,0.058,0.016,0.112,0.052,0.16
				c0.027,0.026,0.054,0.053,0.081,0.08c0.035,0.016,0.07,0.032,0.105,0.049c0.062,0.019,0.125,0.023,0.188,0.011
				c0.071-0.002,0.139-0.019,0.203-0.051c0.002-0.001,0.005-0.002,0.008-0.003c0.101-0.028,0.203-0.05,0.306-0.068
				c0.061-0.001,0.115-0.01,0.172-0.021c0.021-0.004,0.042-0.008,0.063-0.011c0.023-0.004,0.045-0.008,0.068-0.011
				c-0.01,0.001-0.02,0.002-0.03,0.003c0.072-0.012,0.143-0.031,0.212-0.06c0.137-0.058,0.162-0.086,0.256-0.167
				c0.079-0.059,0.144-0.131,0.194-0.217c0,0,0,0,0,0l0,0c0.031-0.045,0.052-0.093,0.068-0.143c0.002-0.006,0.006-0.011,0.008-0.016
				c-0.003,0.006-0.005,0.011-0.008,0.016c0.01-0.031,0.02-0.063,0.025-0.097C65.71,47.44,65.711,47.362,65.689,47.283z"/>
			<path style="fill:#FFFFFF;" d="M72.437,49.556c-0.021-0.045-0.042-0.091-0.062-0.136c-0.044-0.067-0.103-0.112-0.176-0.137
				c-0.125-0.058-0.271-0.071-0.407-0.038c-0.187,0.045-0.387,0.14-0.512,0.29c-0.021,0.026-0.046,0.05-0.068,0.074
				c-0.008,0.001-0.016,0.003-0.024,0.004c-0.17,0.024-0.317,0.088-0.464,0.176c-0.152,0.091-0.28,0.228-0.376,0.376
				c-0.097,0.148-0.147,0.318-0.211,0.481c-0.062,0.16-0.023,0.352,0.122,0.452c0.153,0.107,0.376,0.085,0.537,0.01
				c0.095-0.044,0.186-0.096,0.277-0.15c0.03,0.016,0.059,0.034,0.09,0.045c0.141,0.05,0.341,0.004,0.475-0.057
				c0.138-0.063,0.273-0.151,0.368-0.271c0.049-0.062,0.106-0.119,0.145-0.188c0.035-0.062,0.066-0.13,0.091-0.197
				c0.014-0.036,0.029-0.072,0.042-0.109c0.017-0.047,0.032-0.093,0.049-0.14c0.003-0.005,0.005-0.011,0.009-0.015
				C72.418,49.906,72.484,49.702,72.437,49.556z"/>
			<path style="fill:#FFFFFF;" d="M78.68,52.138c0.004-0.044-0.007-0.085-0.032-0.122c-0.018-0.056-0.053-0.099-0.102-0.133
				c-0.001-0.002-0.002-0.005-0.003-0.007c-0.016-0.048-0.046-0.086-0.091-0.114c-0.03-0.014-0.061-0.028-0.091-0.042
				c-0.055-0.017-0.109-0.02-0.164-0.01c-0.041,0-0.08,0.008-0.117,0.025c-0.064,0.016-0.123,0.045-0.176,0.085
				c-0.034,0.029-0.068,0.058-0.102,0.087c-0.04,0.042-0.07,0.089-0.096,0.139c-0.004,0.003-0.008,0.007-0.011,0.01
				c-0.058,0.056-0.101,0.121-0.131,0.194c-0.015,0.021-0.025,0.044-0.033,0.068c0,0.002-0.001,0.003-0.001,0.005
				c-0.002,0.006-0.004,0.013-0.005,0.019c-0.003,0.01-0.005,0.02-0.009,0.03c0,0,0,0,0.001,0c-0.015,0.043-0.024,0.087-0.029,0.134
				c0.004,0.042,0.007,0.085,0.011,0.127c0.022,0.084,0.069,0.151,0.141,0.201c0.056,0.039,0.117,0.06,0.183,0.064
				c0.071,0.016,0.142,0.014,0.214-0.005c0.108-0.024,0.207-0.068,0.298-0.132c0.091-0.063,0.166-0.142,0.226-0.235
				c0.011-0.017,0.022-0.035,0.031-0.053c0.021-0.045,0.043-0.09,0.065-0.135C78.685,52.272,78.692,52.206,78.68,52.138z"/>
			<g>
				<path style="fill:#FFFFFF;" d="M125.538,136.525c-0.166-0.037-0.329-0.05-0.492-0.053c-0.021-0.058-0.064-0.106-0.132-0.127
					c-0.307-0.093-0.612-0.076-0.927-0.032c-0.299,0.042-0.602,0.125-0.874,0.256c-0.344,0.167-0.634,0.396-0.866,0.7
					c-0.215,0.282-0.325,0.617-0.377,0.965c-0.027,0.179,0.108,0.336,0.27,0.385c1.246,0.378,2.66-0.222,3.492-1.163
					c0.138-0.156,0.239-0.335,0.221-0.548C125.838,136.73,125.723,136.566,125.538,136.525z"/>
				<path style="fill:#FFFFFF;" d="M123.19,137.472c-0.001,0.001-0.002,0.002-0.003,0.003c-0.003,0.003-0.003,0.005-0.005,0.007
					c-0.006,0.008-0.011,0.016-0.017,0.024C123.151,137.532,123.162,137.531,123.19,137.472z"/>
			</g>
			<path style="fill:#FFFFFF;" d="M126.254,143.823c0.003-0.046-0.007-0.087-0.033-0.125c-0.012-0.044-0.036-0.079-0.073-0.105
				c-0.043-0.052-0.099-0.086-0.167-0.101c-0.172-0.033-0.323-0.051-0.496-0.013c-0.078,0.017-0.157,0.04-0.229,0.076
				c-0.147,0.073-0.227,0.128-0.345,0.242c-0.118,0.114-0.175,0.236-0.243,0.38c-0.012,0.026-0.024,0.053-0.035,0.079
				c-0.067,0.13-0.122,0.273-0.076,0.42c0.007,0.02,0.011,0.04,0.015,0.06c0.007,0.034,0.032,0.084,0.057,0.119
				c0.046,0.065,0.1,0.099,0.175,0.122c0.043,0.013,0.091,0.016,0.137,0.019c0.108,0.009,0.215-0.033,0.313-0.069
				c0.013-0.005,0.026-0.01,0.039-0.016c0.006-0.003,0.012-0.006,0.017-0.009c0.056-0.03,0.112-0.061,0.167-0.094
				c0.1-0.07,0.184-0.157,0.249-0.26c0.006-0.011,0.011-0.024,0.017-0.035c0.01-0.005,0.021-0.01,0.031-0.015
				c0.051-0.029,0.103-0.058,0.154-0.087l0.134-0.115c0.034-0.043,0.068-0.087,0.101-0.13c0.044-0.064,0.071-0.133,0.081-0.208
				C126.262,143.914,126.265,143.869,126.254,143.823z"/>
			<path style="fill:#FFFFFF;" d="M125.28,150.935c-0.81-0.259-1.642-0.058-2.416,0.225c-0.293,0.107-0.643,0.212-0.917,0.395
				c-0.093,0.014-0.187,0.029-0.279,0.049c-0.096,0.02-0.257,0.084-0.32,0.087c-0.283,0.014-0.567,0.172-0.686,0.438
				c-0.108,0.239-0.051,0.464,0.203,0.568c0.684,0.279,1.486,0.367,2.219,0.305c0.925-0.078,1.936-0.412,2.411-1.279
				C125.655,151.432,125.653,151.054,125.28,150.935z"/>
			<path style="fill:#FFFFFF;" d="M117.704,159.53c-0.271-0.181-0.556-0.25-0.877-0.202c-0.169,0.025-0.324,0.097-0.483,0.157
				c-0.147,0.039-0.288,0.108-0.407,0.203c-0.079-0.02-0.159-0.035-0.24-0.041c-0.19-0.015-0.396,0.101-0.522,0.234
				c-0.127,0.135-0.185,0.289-0.162,0.472c0.029,0.223,0.151,0.447,0.351,0.559c0.208,0.117,0.448,0.164,0.686,0.146
				c0.527-0.041,1.042-0.246,1.462-0.567c0.172-0.131,0.307-0.288,0.351-0.503C117.9,159.814,117.861,159.634,117.704,159.53z"/>
			<path style="fill:#FFFFFF;" d="M120.728,165.099c-0.422-0.229-0.868-0.313-1.343-0.242c-0.262,0.039-0.515,0.142-0.746,0.283
				c-0.1,0.021-0.199,0.046-0.298,0.078c-0.123,0.04-0.243,0.084-0.359,0.143c-0.082,0.042-0.163,0.087-0.242,0.134
				c-0.034,0.021-0.039,0.024-0.03,0.02c-0.005,0.003-0.007,0.004-0.012,0.007c-0.049,0.027-0.097,0.055-0.145,0.083
				c-0.266,0.158-0.434,0.571-0.159,0.795c0.456,0.371,1.07,0.419,1.631,0.351c0.626-0.076,1.192-0.382,1.658-0.794
				C120.896,165.771,121.045,165.271,120.728,165.099z"/>
			<path style="fill:#FFFFFF;" d="M121.188,172.775c-0.343-0.126-0.721-0.165-1.081-0.092c-0.17,0.034-0.342,0.091-0.494,0.175
				c-0.202,0.11-0.413,0.237-0.566,0.412c-0.104,0.119-0.181,0.252-0.167,0.414c0.012,0.144,0.1,0.247,0.239,0.29
				c0.139,0.043,0.285,0.061,0.429,0.079c0.101,0.018,0.201,0.044,0.304,0.045c0.311,0.003,0.617-0.202,0.75-0.478
				c0.044-0.092,0.078-0.209,0.057-0.315c0.035,0.003,0.07,0.006,0.105,0.01c0.006,0.001,0.006,0,0.009,0.001
				c0.001,0,0,0,0.005,0.001c0.021,0.005,0.043,0.008,0.065,0.012c0.166,0.032,0.356-0.048,0.442-0.199
				C121.362,172.993,121.35,172.835,121.188,172.775z"/>
		</g>
	</g>
	<g>
		<path style="fill:#F6C3A4;" d="M231.88,220.309l-2.335-2.935c29.104-23.153,46.229-71.225,37.77-90.208
			c-2.757-6.187-8.069-8.667-15.788-7.37c-20.9,3.511-39.145,22.051-58.461,41.679c-14.1,14.328-28.679,29.143-45.109,38.764
			C132.62,209.22,117.133,213,102.59,213c-23.14,0.001-43.894-9.57-57.864-22.993c-11.456-11.008-18.603-28.352-19.608-47.586
			c-1.057-20.239,4.691-40.143,16.186-56.047C51.62,72.102,67.602,63.333,79.192,58.49c12.502-5.224,22.452-7.082,22.87-7.158
			l0.677,3.689c-0.394,0.073-39.599,7.546-58.395,33.55c-10.995,15.212-16.493,34.266-15.48,53.654
			c0.956,18.293,7.685,34.723,18.461,45.078c13.331,12.809,33.146,21.936,55.253,21.937c13.933,0,28.774-3.624,43.482-12.237
			c16-9.369,30.403-24.005,44.331-38.158c19.755-20.074,38.414-39.035,60.513-42.748c11.982-2.012,17.4,4.078,19.835,9.542
			c4.528,10.161,2.757,27.507-4.738,46.398C258.221,191.654,245.783,209.248,231.88,220.309z"/>
		<path style="fill:#F6C3A4;" d="M261.737,217.697l-1.285-1.089c12.675-14.964,22.689-34.057,28.197-53.763
			c5.288-18.919,5.653-36.14,1.002-47.246c-3.488-8.328-9.481-12.867-17.815-13.492c-14.314-1.075-28.695,4.233-42.729,15.769
			c-11.206,9.177-22.084,20.069-32.604,30.604c-12.163,12.179-24.741,24.774-37.5,34.297
			c-15.958,11.911-31.343,19.024-45.728,21.142c-4.186,0.616-8.35,0.919-12.443,0.919c-19.201,0.001-36.928-6.649-49.008-18.737
			c-9.739-9.745-15.852-24.77-16.77-41.221c-0.974-17.444,3.929-34.461,13.806-47.917c8.566-11.732,21.647-18.962,31.113-22.961
			c10.772-4.551,19.798-6.27,21.696-6.35l0.071,1.682c-3.752,0.158-35.803,7.095-51.521,28.623
			c-9.648,13.144-14.436,29.774-13.484,46.829c0.896,16.043,6.829,30.669,16.28,40.125c14.28,14.29,36.717,20.771,60.015,17.342
			c14.105-2.077,29.234-9.084,44.966-20.825c12.662-9.451,24.637-21.442,37.316-34.138c10.549-10.563,21.457-21.486,32.727-30.716
			c14.379-11.82,29.152-17.252,43.923-16.146c8.889,0.666,15.543,5.687,19.242,14.52c4.796,11.45,4.455,29.073-0.933,48.35
			C284.699,183.234,274.565,202.553,261.737,217.697z"/>
		<path style="fill:#F6C3A4;" d="M292.013,215.792l-1.072-0.656c11.351-18.543,19.3-39.089,22.988-59.416
			c3.502-19.3,2.775-37.035-2.046-49.937c-4-10.704-10.739-17.825-19.49-20.593c-15.958-5.047-32.292-1.678-47.233,9.743
			c-17.106,13.023-32.648,28.979-47.678,44.41c-9.364,9.614-18.21,18.694-27.068,26.71c-17.828,16.13-32.674,25.814-45.387,29.607
			c-8.169,2.437-16.29,3.626-24.05,3.627c-16.999,0.001-32.278-5.704-42.615-16.491c-16.044-16.742-20.922-51.163-2.611-75.72
			c6.97-9.348,17.281-15.114,24.703-18.304c8.367-3.597,16.507-5.417,20.53-5.587l0.053,1.256c-7.102,0.3-31.79,6.639-44.278,23.387
			c-8.176,10.965-12.206,25.007-11.345,39.537c0.806,13.617,5.856,26.214,13.855,34.561c7.146,7.457,16.975,12.58,28.427,14.817
			c11.586,2.263,24.37,1.472,36.971-2.288c12.53-3.738,27.218-13.333,44.903-29.335c8.829-7.988,17.661-17.055,27.012-26.654
			c15.062-15.464,30.638-31.454,47.817-44.532c15.28-11.681,32.007-15.119,48.375-9.942c9.133,2.889,16.149,10.272,20.289,21.352
			c4.899,13.111,5.647,31.082,2.105,50.602C311.451,176.423,303.444,197.118,292.013,215.792z"/>
		<path style="fill:#F6C3A4;" d="M322.237,213.949l-0.755-0.347c14.179-30.832,20.758-63.129,18.524-90.942
			c-2.099-26.128-11.919-45.95-26.943-54.386c-16.895-9.486-35.304-8.171-51.837,3.704c-24.873,17.816-46.385,41.354-65.364,62.121
			c-4.889,5.35-9.507,10.402-14.078,15.254c-17.54,18.619-31.919,32.215-45.078,38.054c-27.469,12.187-56.325,9.006-71.805-7.914
			c-13.155-14.38-17.204-42.847-2.263-62.306c8.796-11.455,25.602-17.964,37.657-18.472l0.035,0.83
			c-9.596,0.405-27.377,5.572-37.033,18.148c-14.688,19.129-10.712,47.109,2.217,61.239c9.047,9.889,22.763,15,38.092,15.001
			c10.491,0,21.735-2.392,32.763-7.285c8.155-3.618,19.229-10.71,44.81-37.864c4.567-4.847,9.183-9.898,14.07-15.245
			c19.007-20.797,40.549-44.369,65.493-62.235c16.809-12.073,35.535-13.406,52.727-3.753c15.269,8.573,25.243,28.636,27.365,55.044
			C343.079,150.546,336.474,182.99,322.237,213.949z"/>
		<path style="fill:#F6C3A4;" d="M352.596,212.212l-0.707-0.25c12.768-36.152,16.868-71.249,11.857-101.496
			c-4.388-26.485-15.494-47.766-31.27-59.922c-17.018-13.113-37.092-13.618-55.075-1.387c-34.961,23.779-62.674,57.508-84.941,84.61
			c-16.794,20.439-31.297,38.092-44.039,45.553c-14.139,8.28-29.695,12.461-43.809,11.767c-13.814-0.677-25.638-5.924-33.293-14.777
			c-4.398-5.086-7.515-11.994-8.778-19.452c-1.316-7.77-0.482-15.656,2.348-22.205c2.552-5.908,6.593-10.667,12.009-14.145
			c6.058-3.89,13.697-6.055,22.705-6.435l0.031,0.75c-8.873,0.374-16.386,2.499-22.331,6.317
			c-5.289,3.396-9.234,8.043-11.727,13.812c-2.773,6.417-3.588,14.153-2.297,21.783c1.241,7.325,4.297,14.104,8.606,19.087
			c7.519,8.696,19.155,13.852,32.762,14.519c13.975,0.684,29.379-3.459,43.393-11.665c12.625-7.393,27.09-24.997,43.838-45.382
			c22.298-27.139,50.049-60.914,85.099-84.754c18.269-12.426,38.664-11.911,55.955,1.413c15.927,12.272,27.133,33.72,31.552,60.393
			C369.517,140.715,365.406,175.941,352.596,212.212z"/>
	</g>
	<g>
		<g>
			<path style="fill:#231F20;" d="M42.317,91.137l0.686-0.135c0,0,0,0,0,0L42.317,91.137z"/>
		</g>
		<g>
			<g>
				<path style="fill:#231F20;" d="M251.464,131.132c0.584,1.613-0.863,3.615-3.231,4.472c-2.368,0.858-4.762,0.246-5.346-1.366
					c-0.584-1.612,0.863-3.615,3.232-4.472C248.487,128.908,250.88,129.52,251.464,131.132z"/>
			</g>
			<path style="fill:#231F20;" d="M250.585,133.57c-0.33-0.022-0.58-0.308-0.558-0.637l1.214-18.213
				c0.022-0.33,0.307-0.58,0.637-0.558c0.33,0.022,0.58,0.308,0.558,0.637l-1.214,18.213
				C251.201,133.343,250.915,133.592,250.585,133.57z"/>
		</g>
		<g>
			<g>
				<path style="fill:#231F20;" d="M242.139,78.535c-0.804-2.222,1.189-4.98,4.452-6.162c3.264-1.182,6.562-0.339,7.366,1.882
					c0.805,2.221-1.189,4.98-4.452,6.162C246.242,81.599,242.944,80.756,242.139,78.535z"/>
			</g>
			<path style="fill:#231F20;" d="M241.569,101.916c-0.455-0.03-0.799-0.424-0.769-0.878l1.673-25.094
				c0.03-0.455,0.424-0.799,0.879-0.769c0.455,0.03,0.799,0.424,0.769,0.878l-1.673,25.094
				C242.417,101.602,242.024,101.946,241.569,101.916z"/>
		</g>
		<g>
			<g>
				<path style="fill:#231F20;" d="M352.116,134.641c-1.515-4.185,2.24-9.381,8.386-11.608c6.149-2.226,12.36-0.639,13.875,3.546
					c1.515,4.184-2.239,9.381-8.385,11.608C359.844,140.413,353.632,138.826,352.116,134.641z"/>
			</g>
			<path style="fill:#231F20;" d="M351.041,178.683c-0.857-0.057-1.505-0.798-1.448-1.655l3.151-47.269
				c0.057-0.856,0.798-1.505,1.655-1.448c0.857,0.057,1.506,0.798,1.449,1.655l-3.151,47.269
				C352.639,178.092,351.898,178.74,351.041,178.683z"/>
		</g>
		<g>
			<g>
				<path style="fill:#231F20;" d="M36.025,119.672c-1.223-3.377,1.808-7.571,6.767-9.368c4.962-1.797,9.975-0.515,11.197,2.862
					c1.223,3.377-1.807,7.571-6.767,9.367C42.261,124.33,37.248,123.049,36.025,119.672z"/>
			</g>
			<path style="fill:#231F20;" d="M35.157,155.214c-0.692-0.046-1.215-0.644-1.169-1.335l2.543-38.146
				c0.046-0.691,0.644-1.214,1.336-1.168c0.692,0.046,1.215,0.644,1.169,1.335l-2.543,38.146
				C36.447,154.737,35.849,155.26,35.157,155.214z"/>
		</g>
		<g>
			<g>
				<path style="fill:#231F20;" d="M204.25,122.505c0.584,1.612-0.863,3.615-3.232,4.473c-2.368,0.858-4.762,0.246-5.346-1.366
					c-0.584-1.612,0.863-3.615,3.232-4.472C201.273,120.281,203.666,120.892,204.25,122.505z"/>
			</g>
			<path style="fill:#231F20;" d="M203.371,124.943c-0.33-0.022-0.58-0.308-0.558-0.638l1.214-18.212
				c0.018-0.266,0.208-0.487,0.468-0.545l14.782-3.293c0.185-0.041,0.377,0.007,0.521,0.131c0.143,0.123,0.22,0.306,0.207,0.494
				l-1.214,18.213c-0.022,0.33-0.308,0.58-0.637,0.558c-0.331-0.022-0.581-0.308-0.559-0.638l1.161-17.414l-13.562,3.022
				l-1.184,17.765C203.986,124.715,203.701,124.965,203.371,124.943z"/>
			<g>
				<path style="fill:#231F20;" d="M219.032,119.211c0.584,1.613-0.863,3.615-3.232,4.472c-2.369,0.858-4.762,0.246-5.346-1.366
					c-0.584-1.612,0.863-3.615,3.231-4.472C216.054,116.988,218.448,117.599,219.032,119.211z"/>
			</g>
		</g>
		<g>
			<path style="fill:#231F20;" d="M306.746,118.906c-0.841-0.056-1.478-0.784-1.422-1.624l3.093-46.397
				c0.056-0.841,0.784-1.477,1.625-1.421c0.841,0.056,1.477,0.783,1.42,1.624l-3.093,46.397
				C308.314,118.325,307.588,118.962,306.746,118.906z"/>
			<g>
				<path style="fill:#231F20;" d="M308.987,112.694c1.486,4.107-2.199,9.209-8.232,11.394c-6.035,2.185-12.131,0.627-13.62-3.481
					c-1.486-4.107,2.199-9.209,8.232-11.394C301.402,107.028,307.499,108.587,308.987,112.694z"/>
			</g>
			<path style="fill:#231F20;" d="M322.938,79.462c-2.525-2.642-5.75-4.393-8.236-7.077c-1.322-1.428-2.357-2.534-3.087-4.38
				c-0.792-2.009-1.454-3.804-1.623-5.995c-0.049-0.631-0.857,0.088-0.934,0.379c-0.874,3.347-1.775,7.866,0.041,11.063
				c1.626,2.866,4.551,5.092,7.154,6.996c5.415,3.961,9.776,10.572,7.982,17.471c-0.115,0.442,0.432,0.25,0.592,0.089
				C329.977,92.825,327.397,84.129,322.938,79.462z"/>
		</g>
		<g>
			<path style="fill:#231F20;" d="M294.248,218.377c-1.01-0.067-1.773-0.941-1.706-1.951l3.716-55.746
				c0.067-1.012,0.94-1.776,1.95-1.708c1.012,0.068,1.776,0.941,1.708,1.952l-3.716,55.746
				C296.133,217.68,295.26,218.444,294.248,218.377z"/>
			<g>
				<path style="fill:#231F20;" d="M296.942,210.914c1.784,4.934-2.643,11.064-9.891,13.689c-7.252,2.626-14.577,0.753-16.365-4.181
					c-1.786-4.936,2.642-11.065,9.891-13.689C287.828,204.106,295.153,205.979,296.942,210.914z"/>
			</g>
			<path style="fill:#231F20;" d="M313.703,170.985c-3.034-3.174-6.908-5.278-9.895-8.503c-1.589-1.716-2.833-3.045-3.71-5.262
				c-0.951-2.414-1.748-4.571-1.949-7.203c-0.059-0.759-1.03,0.106-1.123,0.455c-1.051,4.021-2.13,9.451,0.05,13.292
				c1.956,3.445,5.467,6.119,8.597,8.407c6.504,4.759,11.746,12.702,9.59,20.992c-0.138,0.531,0.519,0.301,0.71,0.106
				C322.16,187.041,319.06,176.593,313.703,170.985z"/>
		</g>
		<g>
			<g>
				<path style="fill:#231F20;" d="M72.517,208.414c0.798,2.204-1.18,4.942-4.418,6.114c-3.239,1.173-6.511,0.337-7.308-1.868
					c-0.799-2.204,1.179-4.942,4.418-6.114C68.446,205.373,71.718,206.209,72.517,208.414z"/>
			</g>
			<path style="fill:#231F20;" d="M71.315,211.747c-0.452-0.03-0.793-0.421-0.763-0.872l1.66-24.898
				c0.024-0.363,0.285-0.666,0.639-0.746l20.208-4.502c0.253-0.056,0.516,0.01,0.711,0.178c0.197,0.168,0.302,0.418,0.285,0.676
				l-1.66,24.899c-0.03,0.452-0.421,0.793-0.873,0.763c-0.451-0.03-0.793-0.42-0.763-0.872l1.587-23.807l-18.542,4.131
				l-1.619,24.287C72.156,211.436,71.765,211.778,71.315,211.747z"/>
			<g>
				<path style="fill:#231F20;" d="M92.726,203.911c0.798,2.204-1.18,4.942-4.418,6.114c-3.238,1.173-6.511,0.337-7.309-1.867
					c-0.798-2.204,1.179-4.942,4.418-6.114C88.655,200.871,91.927,201.707,92.726,203.911z"/>
			</g>
			<path style="fill:#231F20;" d="M72.717,190.713c-0.358-0.024-0.671-0.282-0.747-0.651c-0.092-0.443,0.192-0.877,0.635-0.969
				l20.188-4.196c0.443-0.091,0.877,0.193,0.969,0.636c0.093,0.443-0.193,0.877-0.635,0.969l-20.188,4.196
				C72.863,190.714,72.789,190.718,72.717,190.713z"/>
		</g>
		<g>
			<g>
				<path style="fill:#231F20;" d="M293.483,47.648c1.083,2.992-1.602,6.708-5.997,8.3c-4.396,1.592-8.838,0.457-9.921-2.535
					c-1.085-2.992,1.601-6.708,5.997-8.3C287.957,43.521,292.399,44.655,293.483,47.648z"/>
			</g>
			<path style="fill:#231F20;" d="M291.851,52.174c-0.613-0.041-1.077-0.571-1.036-1.184l2.253-33.799
				c0.033-0.493,0.386-0.904,0.868-1.012l27.433-6.112c0.343-0.075,0.7,0.013,0.966,0.242c0.267,0.228,0.41,0.568,0.387,0.918
				l-2.253,33.8c-0.041,0.613-0.572,1.077-1.185,1.036c-0.613-0.041-1.077-0.571-1.036-1.184l2.154-32.318l-25.171,5.608
				l-2.198,32.969C292.993,51.751,292.463,52.214,291.851,52.174z"/>
			<g>
				<path style="fill:#231F20;" d="M320.917,41.536c1.083,2.993-1.602,6.708-5.997,8.3c-4.396,1.592-8.838,0.457-9.922-2.535
					c-1.083-2.992,1.601-6.709,5.997-8.3C315.391,37.409,319.832,38.544,320.917,41.536z"/>
			</g>
			<path style="fill:#231F20;" d="M293.754,23.62c-0.486-0.032-0.91-0.383-1.015-0.883c-0.125-0.601,0.26-1.191,0.863-1.315
				l27.405-5.696c0.601-0.124,1.19,0.262,1.315,0.863c0.126,0.601-0.261,1.19-0.863,1.315L294.054,23.6
				C293.953,23.621,293.852,23.627,293.754,23.62z"/>
		</g>
		<g>
			<g>
				<g>
					<path style="fill:#231F20;" d="M154.726,192.488c0.925,2.554-1.367,5.726-5.119,7.085c-3.752,1.359-7.543,0.39-8.468-2.164
						c-0.925-2.554,1.367-5.726,5.119-7.085C150.009,188.965,153.801,189.934,154.726,192.488z"/>
				</g>
				<path style="fill:#231F20;" d="M153.332,196.351c-0.523-0.035-0.919-0.487-0.884-1.01l1.923-28.851
					c0.035-0.523,0.487-0.919,1.01-0.884l22.967,1.531c0.522,0.035,0.918,0.488,0.883,1.01c-0.035,0.523-0.487,0.919-1.01,0.884
					l-22.02-1.468l-1.86,27.904C154.308,195.99,153.856,196.386,153.332,196.351z"/>
			</g>
			<g>
				<path style="fill:#231F20;" d="M176.299,197.882c-0.524-0.035-0.92-0.487-0.885-1.01l1.923-28.851
					c0.035-0.523,0.487-0.919,1.011-0.884c0.522,0.035,0.918,0.488,0.883,1.01l-1.923,28.852
					C177.274,197.521,176.822,197.917,176.299,197.882z"/>
				<g>
					<path style="fill:#231F20;" d="M177.692,194.019c0.925,2.554-1.367,5.726-5.119,7.085c-3.753,1.359-7.544,0.39-8.469-2.164
						c-0.925-2.554,1.368-5.726,5.119-7.085C172.975,190.496,176.767,191.465,177.692,194.019z"/>
				</g>
			</g>
			<path style="fill:#231F20;" d="M177.888,174.045l-22.967-1.531c-0.523-0.035-0.919-0.487-0.884-1.01
				c0.035-0.523,0.487-0.919,1.01-0.884l22.967,1.531c0.522,0.035,0.918,0.487,0.883,1.01
				C178.863,173.684,178.411,174.079,177.888,174.045z"/>
		</g>
		<path style="fill:#231F20;" d="M114.439,80.573c2.566-4.98,3.051-10.891,1.297-15.813c-1.634-4.588-5.502-7.739-9.854-8.029
			c-0.682-0.046-1.376-0.021-2.064,0.072c-0.245-1.229-0.466-2.36-0.669-3.427c-0.666-3.506-1.237-6.965-1.702-10.296
			c1.464-1.733,3.247-3.928,4.873-6.314c1.121-1.647,2.703-4.143,3.487-6.802c0.607-2.061,0.168-4.511-1.145-6.396
			c-1.093-1.569-2.625-2.494-4.312-2.607c-0.815-0.054-1.642,0.084-2.457,0.412c-2.518,1.013-4.637,3.333-5.67,6.208
			c-1.073,2.99-0.762,6.223-0.487,9.074l0.016,0.163c0.128,1.324,0.285,2.725,0.48,4.265c-0.889,0.994-1.825,2.021-2.846,3.124
			c-0.475,0.514-0.953,1.026-1.431,1.539c-3.553,3.814-7.228,7.758-10.053,12.33c-4.093,6.622-5.467,12.334-4.201,17.463
			c1.257,5.092,5.381,9.712,11.033,12.357c1.804,0.844,3.747,1.385,5.776,1.609c1.146,0.294,2.322,0.482,3.495,0.56
			c1.278,0.085,2.558,0.04,3.803-0.134c1.145-0.16,2.256-0.439,3.323-0.832c0.045,0.292,0.09,0.585,0.135,0.878
			c0.635,4.142,0.964,8.33,0.976,12.448c0.011,3.628-0.04,7.817-0.795,11.631c-0.407,2.052-1.136,3.99-2.054,5.456
			c-0.57,0.91-1.439,1.703-2.384,2.177c-1.397,0.699-2.861,1.162-4.353,1.378c-0.751,0.108-1.448,0.138-2.131,0.093
			c-0.028-0.002-0.056-0.004-0.083-0.006c2.655-2.21,3.26-6.075,3.397-7.728c0.201-2.423-0.648-4.931-2.329-6.883
			c-1.647-1.913-3.942-3.1-6.296-3.257c-0.706-0.047-1.417-0.003-2.116,0.13c-4.661,0.888-8.043,5.398-8.859,9.191
			c-0.816,3.79,0.105,9.172,9.123,13.293c1.832,0.837,3.774,1.329,5.77,1.462c0,0,0,0,0,0c6.021,0.401,11.784-2.524,15.038-7.634
			c1.018-1.599,1.542-3.329,2.049-5.001l0.091-0.3c1.591-5.229,1.912-11.238,1.009-18.913c-0.425-3.615-1.024-7.276-1.604-10.817
			l-0.032-0.194C111.6,84.948,113.231,82.917,114.439,80.573z M104.647,26.052c0.13-0.04,0.254-0.095,0.37-0.166
			c0.396,0.234,0.641,1.01,0.601,1.636c-0.007,0.12-0.022,0.255-0.045,0.412c-0.018,0.12-0.021,0.241-0.012,0.362
			c0.011,0.142,0.011,0.273-0.001,0.401c-0.039,0.436-0.191,0.955-0.463,1.584c-1.075,1.463-2.213,2.936-3.434,4.445
			c0.006-0.945,0.02-1.845,0.123-2.731c0.162-1.387,0.565-2.76,1.2-4.081c0.27-0.561,0.682-1.062,1.115-1.566
			C104.198,26.237,104.318,26.153,104.647,26.052z M85.741,66.101c0.863-3.342,2.553-7.504,9.016-15.257
			c0.798-0.957,1.624-1.916,2.446-2.861c0.488,3.161,1.107,6.528,1.956,10.649c-2.276,1.565-4.197,4.038-5.368,6.951
			c-0.99,2.46-1.305,4.938-0.913,7.167c0.502,2.848,2.557,4.697,5.785,5.208c0.049,0.008,0.112,0.015,0.161,0.018
			c1.116,0.074,2.013-0.857,2.15-1.773c0.137-0.912-0.437-1.76-1.337-1.973c-0.839-0.198-1.916-0.586-2.283-1.313
			c-0.416-0.823-0.523-1.941-0.327-3.417c0.074-0.56,0.204-1.135,0.385-1.711c0.648-1.393,1.76-2.626,2.977-3.374
			c0.164,0.754,0.328,1.508,0.493,2.262c1.228,5.636,2.496,11.453,3.443,17.229c-0.499,0.21-1.018,0.371-1.491,0.505
			c-0.137,0.015-0.274,0.03-0.411,0.045c-0.302,0.033-0.606,0.066-0.909,0.105l-0.422,0.055c-1.289,0.169-2.506,0.328-3.7,0.248
			c-0.32-0.021-0.623-0.058-0.925-0.112c-0.464-0.083-0.925-0.178-1.414-0.279c-0.373-0.077-0.757-0.157-1.144-0.23
			c-2.011-0.889-3.84-2.213-5.298-3.837C85.369,76.796,84.324,71.582,85.741,66.101z M108.748,78.061
			c-0.115,0.342-0.239,0.671-0.371,0.985c-0.839-4.436-1.772-8.865-2.68-13.183c-0.093-0.44-0.185-0.881-0.278-1.322
			c1.469,0.928,2.752,2.431,3.298,3.77C109.853,71.103,109.865,74.747,108.748,78.061z"/>
	</g>
	<g>
		<path style="fill:#FFCB16;" d="M150.443,87.317c0,0-8.643,1.39-11.16,1.766c-2.518,0.376-3.495,0.639-1.841,2.142
			c1.653,1.503,6.764,5.862,8.154,7.102c1.39,1.24,1.04,1.991,0.864,4.246c-0.188,2.405-0.639,6.801-0.864,9.244
			c-0.225,2.442-0.075,3.833,2.367,2.029c2.442-1.804,8.718-5.749,10.07-6.614c1.353-0.864,1.916-0.676,3.457,0.301
			c1.541,0.977,8.304,4.584,10.258,5.674c1.954,1.09,1.804-0.413,1.277-2.255c-0.526-1.841-1.804-8.267-2.142-9.92
			c-0.338-1.653,0.526-2.443,2.518-4.246c1.992-1.804,7.252-6.313,8.305-7.327c1.052-1.015,0.075-1.428-3.232-1.766
			c-3.307-0.338-9.469-0.752-10.371-0.827c-0.902-0.075-2.217,0.038-2.931-1.578c-0.714-1.616-3.682-7.929-4.622-10.183
			c-0.939-2.255-1.39-3.758-3.344,0.564c-1.954,4.321-3.744,7.675-4.434,9.244C151.946,86.791,151.27,87.129,150.443,87.317z"/>
		<path style="fill:#FFF8A5;" d="M153.72,89.838c0,0-5.275,0.849-6.811,1.078c-1.537,0.229-2.133,0.39-1.124,1.307
			c1.009,0.917,4.128,3.578,4.977,4.334c0.848,0.757,0.635,1.215,0.527,2.591c-0.115,1.468-0.39,4.151-0.527,5.642
			c-0.138,1.491-0.046,2.339,1.445,1.239c1.491-1.101,5.32-3.509,6.146-4.036c0.826-0.527,1.17-0.413,2.11,0.184
			c0.94,0.596,5.068,2.798,6.261,3.463c1.193,0.665,1.101-0.252,0.78-1.376c-0.321-1.124-1.101-5.045-1.307-6.055
			c-0.206-1.009,0.321-1.491,1.537-2.591c1.215-1.101,4.426-3.853,5.068-4.472c0.642-0.619,0.046-0.871-1.972-1.078
			c-2.018-0.206-5.779-0.459-6.33-0.505c-0.55-0.046-1.353,0.023-1.789-0.963c-0.436-0.986-2.247-4.839-2.821-6.215
			c-0.573-1.376-0.848-2.293-2.041,0.344c-1.193,2.637-2.285,4.684-2.706,5.642C154.637,89.517,154.225,89.724,153.72,89.838z"/>
	</g>
	<g>
		<path style="fill:#FFCB16;" d="M351.795,67.709c0,0-8.643,1.39-11.16,1.766c-2.518,0.376-3.495,0.639-1.841,2.142
			c1.653,1.503,6.764,5.862,8.154,7.102c1.39,1.24,1.04,1.991,0.864,4.246c-0.188,2.405-0.639,6.801-0.864,9.244
			c-0.226,2.443-0.075,3.833,2.367,2.029c2.443-1.804,8.718-5.749,10.07-6.614c1.353-0.864,1.917-0.676,3.457,0.301
			c1.54,0.977,8.304,4.584,10.258,5.674c1.954,1.09,1.804-0.413,1.278-2.255c-0.526-1.841-1.804-8.267-2.142-9.92
			c-0.338-1.653,0.526-2.442,2.518-4.246c1.992-1.804,7.252-6.313,8.305-7.327c1.052-1.015,0.075-1.428-3.232-1.766
			c-3.307-0.338-9.469-0.752-10.371-0.827c-0.902-0.075-2.217,0.038-2.931-1.578c-0.714-1.616-3.682-7.929-4.622-10.183
			c-0.939-2.254-1.39-3.758-3.344,0.564c-1.954,4.321-3.744,7.675-4.434,9.244C353.298,67.183,352.622,67.521,351.795,67.709z"/>
		<path style="fill:#FFF8A5;" d="M355.073,70.231c0,0-5.275,0.849-6.811,1.078c-1.536,0.229-2.133,0.39-1.124,1.307
			c1.009,0.917,4.128,3.577,4.977,4.334c0.848,0.757,0.635,1.215,0.527,2.592c-0.115,1.468-0.39,4.151-0.527,5.642
			c-0.138,1.491-0.046,2.339,1.445,1.238c1.491-1.101,5.32-3.509,6.146-4.036c0.826-0.527,1.17-0.413,2.11,0.183
			c0.94,0.596,5.068,2.798,6.261,3.463c1.193,0.665,1.101-0.252,0.78-1.376c-0.321-1.124-1.101-5.045-1.307-6.054
			c-0.206-1.009,0.321-1.491,1.536-2.591c1.216-1.101,4.426-3.853,5.069-4.472c0.642-0.619,0.046-0.871-1.972-1.078
			c-2.018-0.206-5.779-0.459-6.33-0.505c-0.55-0.046-1.353,0.023-1.789-0.963c-0.436-0.986-2.247-4.839-2.821-6.215
			c-0.573-1.376-0.848-2.293-2.041,0.344c-1.193,2.637-2.285,4.684-2.706,5.642C355.99,69.91,355.577,70.116,355.073,70.231z"/>
	</g>
	<g>
		<path style="fill:#FFCB16;" d="M243.189,173.246c0,0-8.643,1.39-11.16,1.766c-2.518,0.376-3.495,0.639-1.841,2.142
			c1.653,1.503,6.764,5.862,8.154,7.102c1.39,1.24,1.04,1.991,0.864,4.246c-0.188,2.405-0.639,6.801-0.864,9.244
			c-0.226,2.443-0.075,3.833,2.367,2.029c2.442-1.804,8.718-5.749,10.07-6.614s1.916-0.676,3.457,0.301
			c1.541,0.977,8.304,4.584,10.258,5.674c1.954,1.09,1.804-0.413,1.277-2.255c-0.526-1.841-1.804-8.267-2.142-9.92
			c-0.338-1.653,0.526-2.443,2.518-4.246c1.992-1.804,7.252-6.313,8.305-7.327c1.052-1.015,0.075-1.428-3.232-1.766
			c-3.307-0.338-9.469-0.752-10.371-0.827c-0.902-0.075-2.217,0.038-2.931-1.578c-0.714-1.616-3.682-7.929-4.622-10.183
			c-0.939-2.255-1.39-3.758-3.344,0.564c-1.954,4.321-3.744,7.675-4.434,9.244C244.692,172.72,244.016,173.058,243.189,173.246z"/>
		<path style="fill:#FFF8A5;" d="M246.466,175.767c0,0-5.275,0.849-6.811,1.078c-1.537,0.229-2.133,0.39-1.124,1.307
			c1.009,0.917,4.128,3.578,4.977,4.334c0.848,0.757,0.635,1.215,0.527,2.591c-0.115,1.468-0.39,4.151-0.527,5.642
			c-0.138,1.491-0.046,2.339,1.445,1.238c1.491-1.101,5.32-3.509,6.146-4.036c0.826-0.527,1.17-0.413,2.11,0.184
			c0.94,0.596,5.068,2.798,6.261,3.463c1.193,0.665,1.101-0.252,0.78-1.376c-0.321-1.124-1.101-5.045-1.307-6.054
			c-0.206-1.009,0.321-1.491,1.536-2.591c1.216-1.101,4.426-3.853,5.069-4.472c0.642-0.619,0.046-0.871-1.972-1.078
			c-2.018-0.206-5.779-0.459-6.33-0.505c-0.55-0.046-1.353,0.023-1.789-0.963c-0.436-0.986-2.247-4.839-2.821-6.215
			c-0.573-1.376-0.848-2.293-2.041,0.344c-1.193,2.637-2.285,4.684-2.706,5.642C247.383,175.446,246.971,175.652,246.466,175.767z"
			/>
	</g>
	<g>
		<path style="fill:#FFCB16;" d="M19.658,25.89c0,0-8.643,1.39-11.16,1.766c-2.518,0.376-3.494,0.639-1.841,2.142
			c1.653,1.503,6.764,5.862,8.154,7.102c1.39,1.24,1.04,1.991,0.864,4.246c-0.188,2.405-0.639,6.802-0.864,9.244
			c-0.226,2.443-0.075,3.833,2.367,2.029c2.443-1.804,8.718-5.749,10.071-6.613c1.353-0.864,1.916-0.676,3.457,0.3
			c1.541,0.977,8.304,4.585,10.258,5.674c1.954,1.09,1.804-0.413,1.277-2.255c-0.526-1.841-1.804-8.267-2.142-9.92
			c-0.338-1.653,0.526-2.442,2.518-4.246c1.992-1.804,7.252-6.313,8.305-7.327c1.052-1.015,0.075-1.428-3.232-1.766
			c-3.307-0.338-9.469-0.751-10.371-0.827c-0.902-0.075-2.217,0.038-2.931-1.578c-0.714-1.616-3.682-7.929-4.622-10.183
			c-0.939-2.255-1.39-3.758-3.344,0.564c-1.954,4.321-3.744,7.675-4.434,9.244C21.161,25.364,20.485,25.702,19.658,25.89z"/>
		<path style="fill:#FFF8A5;" d="M22.935,28.412c0,0-5.275,0.849-6.811,1.078c-1.536,0.229-2.133,0.39-1.124,1.307
			c1.009,0.917,4.128,3.578,4.977,4.334c0.848,0.757,0.635,1.215,0.527,2.591c-0.115,1.468-0.39,4.151-0.527,5.642
			c-0.138,1.491-0.046,2.339,1.445,1.238s5.32-3.509,6.146-4.036s1.17-0.413,2.11,0.183c0.94,0.596,5.068,2.798,6.261,3.463
			c1.192,0.665,1.101-0.252,0.78-1.376c-0.321-1.124-1.101-5.045-1.307-6.055c-0.206-1.009,0.321-1.491,1.536-2.591
			c1.216-1.101,4.426-3.853,5.069-4.472c0.642-0.619,0.046-0.872-1.972-1.078c-2.018-0.206-5.779-0.459-6.33-0.505
			c-0.55-0.046-1.353,0.023-1.789-0.963c-0.436-0.986-2.247-4.839-2.821-6.215c-0.573-1.376-0.848-2.293-2.041,0.344
			c-1.193,2.637-2.285,4.684-2.706,5.642C23.853,28.091,23.44,28.297,22.935,28.412z"/>
	</g>
	<g>
		<g>
			
				<linearGradient id="SVGID_00000107569941809618175820000001010992638922327427_" gradientUnits="userSpaceOnUse" x1="21.1946" y1="110.4283" x2="21.0841" y2="110.1836" gradientTransform="matrix(0.9978 0.0665 -0.0665 0.9978 26.3798 -21.3831)">
				<stop  offset="0.1124" style="stop-color:#F0C83B"/>
				<stop  offset="0.2416" style="stop-color:#F1563C"/>
				<stop  offset="0.2688" style="stop-color:#E65352"/>
				<stop  offset="0.3232" style="stop-color:#D34F7A"/>
				<stop  offset="0.3666" style="stop-color:#C74C92"/>
				<stop  offset="0.3933" style="stop-color:#C34B9B"/>
				<stop  offset="0.6068" style="stop-color:#00B3C1"/>
				<stop  offset="0.8146" style="stop-color:#00B36C"/>
				<stop  offset="1" style="stop-color:#00B3C1"/>
			</linearGradient>
			<path style="fill:url(#SVGID_00000107569941809618175820000001010992638922327427_);" d="M39.791,90.144l0.686-0.135c0,0,0,0,0,0
				L39.791,90.144z"/>
		</g>
		<g>
			<g>
				
					<linearGradient id="SVGID_00000048476221873617139350000017972679372076869822_" gradientUnits="userSpaceOnUse" x1="128.972" y1="15.255" x2="251.0396" y2="166.8856" gradientTransform="matrix(0.9978 0.0665 -0.0665 0.9978 26.3798 -21.3831)">
					<stop  offset="0.1124" style="stop-color:#F0C83B"/>
					<stop  offset="0.2416" style="stop-color:#F1563C"/>
					<stop  offset="0.2688" style="stop-color:#E65352"/>
					<stop  offset="0.3232" style="stop-color:#D34F7A"/>
					<stop  offset="0.3666" style="stop-color:#C74C92"/>
					<stop  offset="0.3933" style="stop-color:#C34B9B"/>
					<stop  offset="0.6068" style="stop-color:#00B3C1"/>
					<stop  offset="0.8146" style="stop-color:#00B36C"/>
					<stop  offset="1" style="stop-color:#00B3C1"/>
				</linearGradient>
				<path style="fill:url(#SVGID_00000048476221873617139350000017972679372076869822_);" d="M248.938,130.139
					c0.584,1.613-0.863,3.615-3.231,4.472c-2.368,0.858-4.762,0.246-5.346-1.366c-0.584-1.612,0.863-3.615,3.231-4.473
					S248.354,128.526,248.938,130.139z"/>
			</g>
			
				<linearGradient id="SVGID_00000010268514107694946530000004024122347371121030_" gradientUnits="userSpaceOnUse" x1="135.5051" y1="10.0024" x2="257.5684" y2="161.6277" gradientTransform="matrix(0.9978 0.0665 -0.0665 0.9978 26.3798 -21.3831)">
				<stop  offset="0.1124" style="stop-color:#F0C83B"/>
				<stop  offset="0.2416" style="stop-color:#F1563C"/>
				<stop  offset="0.2688" style="stop-color:#E65352"/>
				<stop  offset="0.3232" style="stop-color:#D34F7A"/>
				<stop  offset="0.3666" style="stop-color:#C74C92"/>
				<stop  offset="0.3933" style="stop-color:#C34B9B"/>
				<stop  offset="0.6068" style="stop-color:#00B3C1"/>
				<stop  offset="0.8146" style="stop-color:#00B36C"/>
				<stop  offset="1" style="stop-color:#00B3C1"/>
			</linearGradient>
			<path style="fill:url(#SVGID_00000010268514107694946530000004024122347371121030_);" d="M248.058,132.577
				c-0.33-0.022-0.58-0.308-0.558-0.637l1.214-18.213c0.022-0.33,0.308-0.58,0.637-0.558c0.33,0.022,0.58,0.308,0.558,0.638
				l-1.214,18.213C248.674,132.349,248.388,132.599,248.058,132.577z"/>
		</g>
		<g>
			<g>
				
					<linearGradient id="SVGID_00000131329359438534933220000007900230463238998410_" gradientUnits="userSpaceOnUse" x1="115.9846" y1="-53.5324" x2="284.1681" y2="155.3826" gradientTransform="matrix(0.9978 0.0665 -0.0665 0.9978 26.3798 -21.3831)">
					<stop  offset="0.1124" style="stop-color:#F0C83B"/>
					<stop  offset="0.2416" style="stop-color:#F1563C"/>
					<stop  offset="0.2688" style="stop-color:#E65352"/>
					<stop  offset="0.3232" style="stop-color:#D34F7A"/>
					<stop  offset="0.3666" style="stop-color:#C74C92"/>
					<stop  offset="0.3933" style="stop-color:#C34B9B"/>
					<stop  offset="0.6068" style="stop-color:#00B3C1"/>
					<stop  offset="0.8146" style="stop-color:#00B36C"/>
					<stop  offset="1" style="stop-color:#00B3C1"/>
				</linearGradient>
				<path style="fill:url(#SVGID_00000131329359438534933220000007900230463238998410_);" d="M239.613,77.542
					c-0.805-2.222,1.189-4.981,4.452-6.162c3.264-1.182,6.562-0.339,7.366,1.882c0.804,2.221-1.189,4.98-4.452,6.162
					C243.715,80.606,240.417,79.763,239.613,77.542z"/>
			</g>
			
				<linearGradient id="SVGID_00000057117613644524345740000002223867454666887359_" gradientUnits="userSpaceOnUse" x1="106.9898" y1="-46.2879" x2="275.1698" y2="162.623" gradientTransform="matrix(0.9978 0.0665 -0.0665 0.9978 26.3798 -21.3831)">
				<stop  offset="0.1124" style="stop-color:#F0C83B"/>
				<stop  offset="0.2416" style="stop-color:#F1563C"/>
				<stop  offset="0.2688" style="stop-color:#E65352"/>
				<stop  offset="0.3232" style="stop-color:#D34F7A"/>
				<stop  offset="0.3666" style="stop-color:#C74C92"/>
				<stop  offset="0.3933" style="stop-color:#C34B9B"/>
				<stop  offset="0.6068" style="stop-color:#00B3C1"/>
				<stop  offset="0.8146" style="stop-color:#00B36C"/>
				<stop  offset="1" style="stop-color:#00B3C1"/>
			</linearGradient>
			<path style="fill:url(#SVGID_00000057117613644524345740000002223867454666887359_);" d="M239.042,100.923
				c-0.455-0.03-0.799-0.424-0.769-0.879l1.673-25.094c0.03-0.455,0.424-0.799,0.879-0.769c0.455,0.03,0.799,0.424,0.769,0.878
				l-1.673,25.094C239.89,100.609,239.497,100.953,239.042,100.923z"/>
		</g>
		<g>
			<g>
				
					<linearGradient id="SVGID_00000101792793810846034520000008360036480652138644_" gradientUnits="userSpaceOnUse" x1="243.1769" y1="3.6407" x2="559.981" y2="397.1703" gradientTransform="matrix(0.9978 0.0665 -0.0665 0.9978 26.3798 -21.3831)">
					<stop  offset="0.1124" style="stop-color:#F0C83B"/>
					<stop  offset="0.2416" style="stop-color:#F1563C"/>
					<stop  offset="0.2688" style="stop-color:#E65352"/>
					<stop  offset="0.3232" style="stop-color:#D34F7A"/>
					<stop  offset="0.3666" style="stop-color:#C74C92"/>
					<stop  offset="0.3933" style="stop-color:#C34B9B"/>
					<stop  offset="0.6068" style="stop-color:#00B3C1"/>
					<stop  offset="0.8146" style="stop-color:#00B36C"/>
					<stop  offset="1" style="stop-color:#00B3C1"/>
				</linearGradient>
				<path style="fill:url(#SVGID_00000101792793810846034520000008360036480652138644_);" d="M349.59,133.648
					c-1.515-4.185,2.24-9.381,8.386-11.608c6.149-2.226,12.36-0.639,13.875,3.546c1.516,4.184-2.239,9.381-8.385,11.607
					C357.317,139.419,351.105,137.832,349.59,133.648z"/>
			</g>
			
				<linearGradient id="SVGID_00000000910033952839164890000003192622195190443661_" gradientUnits="userSpaceOnUse" x1="226.233" y1="17.2862" x2="543.028" y2="410.8044" gradientTransform="matrix(0.9978 0.0665 -0.0665 0.9978 26.3798 -21.3831)">
				<stop  offset="0.1124" style="stop-color:#F0C83B"/>
				<stop  offset="0.2416" style="stop-color:#F1563C"/>
				<stop  offset="0.2688" style="stop-color:#E65352"/>
				<stop  offset="0.3232" style="stop-color:#D34F7A"/>
				<stop  offset="0.3666" style="stop-color:#C74C92"/>
				<stop  offset="0.3933" style="stop-color:#C34B9B"/>
				<stop  offset="0.6068" style="stop-color:#00B3C1"/>
				<stop  offset="0.8146" style="stop-color:#00B36C"/>
				<stop  offset="1" style="stop-color:#00B3C1"/>
			</linearGradient>
			<path style="fill:url(#SVGID_00000000910033952839164890000003192622195190443661_);" d="M348.514,177.69
				c-0.857-0.057-1.505-0.798-1.448-1.655l3.151-47.269c0.057-0.856,0.798-1.505,1.655-1.448c0.857,0.057,1.506,0.798,1.448,1.655
				l-3.151,47.269C350.112,177.098,349.371,177.747,348.514,177.69z"/>
		</g>
		<g>
			<g>
				
					<linearGradient id="SVGID_00000127036507223840954520000003561304242730558627_" gradientUnits="userSpaceOnUse" x1="-55.9099" y1="34.7263" x2="199.7543" y2="352.3087" gradientTransform="matrix(0.9978 0.0665 -0.0665 0.9978 26.3798 -21.3831)">
					<stop  offset="0.1124" style="stop-color:#F0C83B"/>
					<stop  offset="0.2416" style="stop-color:#F1563C"/>
					<stop  offset="0.2688" style="stop-color:#E65352"/>
					<stop  offset="0.3232" style="stop-color:#D34F7A"/>
					<stop  offset="0.3666" style="stop-color:#C74C92"/>
					<stop  offset="0.3933" style="stop-color:#C34B9B"/>
					<stop  offset="0.6068" style="stop-color:#00B3C1"/>
					<stop  offset="0.8146" style="stop-color:#00B36C"/>
					<stop  offset="1" style="stop-color:#00B3C1"/>
				</linearGradient>
				<path style="fill:url(#SVGID_00000127036507223840954520000003561304242730558627_);" d="M33.498,118.678
					c-1.223-3.377,1.808-7.571,6.767-9.368c4.962-1.797,9.974-0.515,11.197,2.861c1.223,3.377-1.807,7.571-6.767,9.368
					C39.734,123.336,34.721,122.055,33.498,118.678z"/>
			</g>
			
				<linearGradient id="SVGID_00000040559581307589771450000012413380688272749483_" gradientUnits="userSpaceOnUse" x1="-69.5842" y1="45.738" x2="186.0735" y2="363.3123" gradientTransform="matrix(0.9978 0.0665 -0.0665 0.9978 26.3798 -21.3831)">
				<stop  offset="0.1124" style="stop-color:#F0C83B"/>
				<stop  offset="0.2416" style="stop-color:#F1563C"/>
				<stop  offset="0.2688" style="stop-color:#E65352"/>
				<stop  offset="0.3232" style="stop-color:#D34F7A"/>
				<stop  offset="0.3666" style="stop-color:#C74C92"/>
				<stop  offset="0.3933" style="stop-color:#C34B9B"/>
				<stop  offset="0.6068" style="stop-color:#00B3C1"/>
				<stop  offset="0.8146" style="stop-color:#00B36C"/>
				<stop  offset="1" style="stop-color:#00B3C1"/>
			</linearGradient>
			<path style="fill:url(#SVGID_00000040559581307589771450000012413380688272749483_);" d="M32.63,154.221
				c-0.692-0.046-1.215-0.644-1.169-1.335l2.543-38.146c0.046-0.691,0.644-1.215,1.336-1.168c0.692,0.046,1.215,0.644,1.169,1.335
				l-2.543,38.146C33.92,153.743,33.322,154.267,32.63,154.221z"/>
		</g>
		<g>
			<g>
				
					<linearGradient id="SVGID_00000086680534027100562860000002161526128677347254_" gradientUnits="userSpaceOnUse" x1="116.7966" y1="53.8931" x2="238.8628" y2="205.522" gradientTransform="matrix(0.9978 0.0665 -0.0665 0.9978 26.3798 -21.3831)">
					<stop  offset="0.1124" style="stop-color:#F0C83B"/>
					<stop  offset="0.2416" style="stop-color:#F1563C"/>
					<stop  offset="0.2688" style="stop-color:#E65352"/>
					<stop  offset="0.3232" style="stop-color:#D34F7A"/>
					<stop  offset="0.3666" style="stop-color:#C74C92"/>
					<stop  offset="0.3933" style="stop-color:#C34B9B"/>
					<stop  offset="0.6068" style="stop-color:#00B3C1"/>
					<stop  offset="0.8146" style="stop-color:#00B36C"/>
					<stop  offset="1" style="stop-color:#00B3C1"/>
				</linearGradient>
				<path style="fill:url(#SVGID_00000086680534027100562860000002161526128677347254_);" d="M201.723,121.511
					c0.584,1.612-0.863,3.615-3.231,4.472c-2.368,0.858-4.762,0.246-5.346-1.366c-0.584-1.612,0.863-3.615,3.231-4.472
					C198.746,119.287,201.14,119.899,201.723,121.511z"/>
			</g>
			
				<linearGradient id="SVGID_00000076577682193086228820000011865361519470995083_" gradientUnits="userSpaceOnUse" x1="128.7771" y1="44.2487" x2="250.8431" y2="195.8772" gradientTransform="matrix(0.9978 0.0665 -0.0665 0.9978 26.3798 -21.3831)">
				<stop  offset="0.1124" style="stop-color:#F0C83B"/>
				<stop  offset="0.2416" style="stop-color:#F1563C"/>
				<stop  offset="0.2688" style="stop-color:#E65352"/>
				<stop  offset="0.3232" style="stop-color:#D34F7A"/>
				<stop  offset="0.3666" style="stop-color:#C74C92"/>
				<stop  offset="0.3933" style="stop-color:#C34B9B"/>
				<stop  offset="0.6068" style="stop-color:#00B3C1"/>
				<stop  offset="0.8146" style="stop-color:#00B36C"/>
				<stop  offset="1" style="stop-color:#00B3C1"/>
			</linearGradient>
			<path style="fill:url(#SVGID_00000076577682193086228820000011865361519470995083_);" d="M200.844,123.95
				c-0.33-0.022-0.58-0.308-0.558-0.638l1.214-18.212c0.018-0.266,0.208-0.487,0.468-0.545l14.782-3.293
				c0.185-0.041,0.378,0.007,0.521,0.131c0.144,0.123,0.22,0.306,0.208,0.494l-1.214,18.213c-0.022,0.33-0.308,0.58-0.637,0.558
				c-0.331-0.022-0.581-0.308-0.559-0.638l1.161-17.414l-13.563,3.022l-1.184,17.765C201.46,123.722,201.174,123.972,200.844,123.95
				z"/>
			<g>
				
					<linearGradient id="SVGID_00000160184620907692561490000005194874954840157593_" gradientUnits="userSpaceOnUse" x1="127.6979" y1="45.117" x2="249.764" y2="196.7457" gradientTransform="matrix(0.9978 0.0665 -0.0665 0.9978 26.3798 -21.3831)">
					<stop  offset="0.1124" style="stop-color:#F0C83B"/>
					<stop  offset="0.2416" style="stop-color:#F1563C"/>
					<stop  offset="0.2688" style="stop-color:#E65352"/>
					<stop  offset="0.3232" style="stop-color:#D34F7A"/>
					<stop  offset="0.3666" style="stop-color:#C74C92"/>
					<stop  offset="0.3933" style="stop-color:#C34B9B"/>
					<stop  offset="0.6068" style="stop-color:#00B3C1"/>
					<stop  offset="0.8146" style="stop-color:#00B36C"/>
					<stop  offset="1" style="stop-color:#00B3C1"/>
				</linearGradient>
				<path style="fill:url(#SVGID_00000160184620907692561490000005194874954840157593_);" d="M216.505,118.218
					c0.584,1.613-0.863,3.615-3.232,4.473c-2.369,0.858-4.762,0.246-5.346-1.366c-0.584-1.612,0.863-3.615,3.232-4.472
					C213.528,115.994,215.921,116.606,216.505,118.218z"/>
			</g>
		</g>
		<g>
			
				<linearGradient id="SVGID_00000142144887309915701380000002307806059530143150_" gradientUnits="userSpaceOnUse" x1="142.6321" y1="-82.9573" x2="302.3708" y2="115.4677" gradientTransform="matrix(0.9978 0.0665 -0.0665 0.9978 26.3798 -21.3831)">
				<stop  offset="0.1124" style="stop-color:#F0C83B"/>
				<stop  offset="0.2416" style="stop-color:#F1563C"/>
				<stop  offset="0.2688" style="stop-color:#E65352"/>
				<stop  offset="0.3232" style="stop-color:#D34F7A"/>
				<stop  offset="0.3666" style="stop-color:#C74C92"/>
				<stop  offset="0.3933" style="stop-color:#C34B9B"/>
				<stop  offset="0.6068" style="stop-color:#00B3C1"/>
				<stop  offset="0.8146" style="stop-color:#00B36C"/>
				<stop  offset="1" style="stop-color:#00B3C1"/>
			</linearGradient>
			<path style="fill:url(#SVGID_00000142144887309915701380000002307806059530143150_);" d="M304.22,117.912
				c-0.841-0.056-1.478-0.784-1.422-1.624l3.093-46.397c0.056-0.841,0.783-1.477,1.625-1.421c0.841,0.056,1.477,0.783,1.421,1.624
				l-3.093,46.397C305.787,117.332,305.061,117.968,304.22,117.912z"/>
			<g>
				
					<linearGradient id="SVGID_00000011720420588662359690000005791210473078868112_" gradientUnits="userSpaceOnUse" x1="125.9944" y1="-69.5701" x2="285.7365" y2="128.8593" gradientTransform="matrix(0.9978 0.0665 -0.0665 0.9978 26.3798 -21.3831)">
					<stop  offset="0.1124" style="stop-color:#F0C83B"/>
					<stop  offset="0.2416" style="stop-color:#F1563C"/>
					<stop  offset="0.2688" style="stop-color:#E65352"/>
					<stop  offset="0.3232" style="stop-color:#D34F7A"/>
					<stop  offset="0.3666" style="stop-color:#C74C92"/>
					<stop  offset="0.3933" style="stop-color:#C34B9B"/>
					<stop  offset="0.6068" style="stop-color:#00B3C1"/>
					<stop  offset="0.8146" style="stop-color:#00B36C"/>
					<stop  offset="1" style="stop-color:#00B3C1"/>
				</linearGradient>
				<path style="fill:url(#SVGID_00000011720420588662359690000005791210473078868112_);" d="M306.46,111.7
					c1.486,4.107-2.199,9.209-8.232,11.394c-6.035,2.185-12.131,0.627-13.62-3.481c-1.486-4.107,2.199-9.209,8.232-11.394
					C298.875,106.035,304.973,107.593,306.46,111.7z"/>
			</g>
			
				<linearGradient id="SVGID_00000161604047175156383420000008219178178691206811_" gradientUnits="userSpaceOnUse" x1="154.8062" y1="-92.7601" x2="314.5461" y2="105.6664" gradientTransform="matrix(0.9978 0.0665 -0.0665 0.9978 26.3798 -21.3831)">
				<stop  offset="0.1124" style="stop-color:#F0C83B"/>
				<stop  offset="0.2416" style="stop-color:#F1563C"/>
				<stop  offset="0.2688" style="stop-color:#E65352"/>
				<stop  offset="0.3232" style="stop-color:#D34F7A"/>
				<stop  offset="0.3666" style="stop-color:#C74C92"/>
				<stop  offset="0.3933" style="stop-color:#C34B9B"/>
				<stop  offset="0.6068" style="stop-color:#00B3C1"/>
				<stop  offset="0.8146" style="stop-color:#00B36C"/>
				<stop  offset="1" style="stop-color:#00B3C1"/>
			</linearGradient>
			<path style="fill:url(#SVGID_00000161604047175156383420000008219178178691206811_);" d="M320.411,78.469
				c-2.525-2.642-5.75-4.393-8.236-7.077c-1.322-1.428-2.357-2.534-3.087-4.38c-0.792-2.009-1.454-3.804-1.623-5.995
				c-0.049-0.631-0.857,0.088-0.934,0.379c-0.874,3.347-1.775,7.866,0.041,11.063c1.626,2.867,4.551,5.092,7.154,6.996
				c5.415,3.961,9.776,10.572,7.982,17.471c-0.114,0.442,0.432,0.25,0.591,0.089C327.45,91.831,324.87,83.136,320.411,78.469z"/>
		</g>
		<g>
			
				<linearGradient id="SVGID_00000136383724771690090820000003142136428662789054_" gradientUnits="userSpaceOnUse" x1="177.0655" y1="62.1756" x2="413.7836" y2="356.2234" gradientTransform="matrix(0.9978 0.0665 -0.0665 0.9978 26.3798 -21.3831)">
				<stop  offset="0.1124" style="stop-color:#F0C83B"/>
				<stop  offset="0.2416" style="stop-color:#F1563C"/>
				<stop  offset="0.2688" style="stop-color:#E65352"/>
				<stop  offset="0.3232" style="stop-color:#D34F7A"/>
				<stop  offset="0.3666" style="stop-color:#C74C92"/>
				<stop  offset="0.3933" style="stop-color:#C34B9B"/>
				<stop  offset="0.6068" style="stop-color:#00B3C1"/>
				<stop  offset="0.8146" style="stop-color:#00B36C"/>
				<stop  offset="1" style="stop-color:#00B3C1"/>
			</linearGradient>
			<path style="fill:url(#SVGID_00000136383724771690090820000003142136428662789054_);" d="M291.721,217.383
				c-1.01-0.067-1.773-0.941-1.706-1.951l3.716-55.746c0.067-1.012,0.94-1.776,1.95-1.708c1.012,0.068,1.776,0.941,1.709,1.952
				l-3.716,55.746C293.606,216.686,292.733,217.451,291.721,217.383z"/>
			<g>
				
					<linearGradient id="SVGID_00000083799292471649780820000009993775903152399511_" gradientUnits="userSpaceOnUse" x1="157.1016" y1="78.2946" x2="393.8346" y2="372.361" gradientTransform="matrix(0.9978 0.0665 -0.0665 0.9978 26.3798 -21.3831)">
					<stop  offset="0.1124" style="stop-color:#F0C83B"/>
					<stop  offset="0.2416" style="stop-color:#F1563C"/>
					<stop  offset="0.2688" style="stop-color:#E65352"/>
					<stop  offset="0.3232" style="stop-color:#D34F7A"/>
					<stop  offset="0.3666" style="stop-color:#C74C92"/>
					<stop  offset="0.3933" style="stop-color:#C34B9B"/>
					<stop  offset="0.6068" style="stop-color:#00B3C1"/>
					<stop  offset="0.8146" style="stop-color:#00B36C"/>
					<stop  offset="1" style="stop-color:#00B3C1"/>
				</linearGradient>
				<path style="fill:url(#SVGID_00000083799292471649780820000009993775903152399511_);" d="M294.415,209.92
					c1.784,4.934-2.643,11.064-9.891,13.689c-7.252,2.626-14.577,0.753-16.365-4.181c-1.786-4.936,2.641-11.065,9.891-13.689
					C285.302,203.113,292.626,204.986,294.415,209.92z"/>
			</g>
			
				<linearGradient id="SVGID_00000068662884574185289180000004657507183642087301_" gradientUnits="userSpaceOnUse" x1="191.719" y1="50.4311" x2="428.4485" y2="344.4931" gradientTransform="matrix(0.9978 0.0665 -0.0665 0.9978 26.3798 -21.3831)">
				<stop  offset="0.1124" style="stop-color:#F0C83B"/>
				<stop  offset="0.2416" style="stop-color:#F1563C"/>
				<stop  offset="0.2688" style="stop-color:#E65352"/>
				<stop  offset="0.3232" style="stop-color:#D34F7A"/>
				<stop  offset="0.3666" style="stop-color:#C74C92"/>
				<stop  offset="0.3933" style="stop-color:#C34B9B"/>
				<stop  offset="0.6068" style="stop-color:#00B3C1"/>
				<stop  offset="0.8146" style="stop-color:#00B36C"/>
				<stop  offset="1" style="stop-color:#00B3C1"/>
			</linearGradient>
			<path style="fill:url(#SVGID_00000068662884574185289180000004657507183642087301_);" d="M311.176,169.991
				c-3.034-3.174-6.908-5.278-9.895-8.503c-1.589-1.717-2.833-3.045-3.71-5.262c-0.951-2.415-1.748-4.571-1.949-7.203
				c-0.059-0.758-1.03,0.106-1.123,0.455c-1.051,4.021-2.13,9.451,0.05,13.292c1.955,3.445,5.467,6.118,8.597,8.407
				c6.504,4.759,11.745,12.702,9.59,20.992c-0.138,0.531,0.519,0.301,0.71,0.106C319.633,186.048,316.533,175.6,311.176,169.991z"/>
		</g>
		<g>
			<g>
				
					<linearGradient id="SVGID_00000112633533653598196800000018233876516729480363_" gradientUnits="userSpaceOnUse" x1="-6.3492" y1="154.1555" x2="115.7171" y2="305.7844" gradientTransform="matrix(0.9978 0.0665 -0.0665 0.9978 26.3798 -21.3831)">
					<stop  offset="0.1124" style="stop-color:#F0C83B"/>
					<stop  offset="0.2416" style="stop-color:#F1563C"/>
					<stop  offset="0.2688" style="stop-color:#E65352"/>
					<stop  offset="0.3232" style="stop-color:#D34F7A"/>
					<stop  offset="0.3666" style="stop-color:#C74C92"/>
					<stop  offset="0.3933" style="stop-color:#C34B9B"/>
					<stop  offset="0.6068" style="stop-color:#00B3C1"/>
					<stop  offset="0.8146" style="stop-color:#00B36C"/>
					<stop  offset="1" style="stop-color:#00B3C1"/>
				</linearGradient>
				<path style="fill:url(#SVGID_00000112633533653598196800000018233876516729480363_);" d="M69.99,207.42
					c0.798,2.204-1.18,4.942-4.418,6.114c-3.239,1.173-6.511,0.337-7.308-1.868c-0.799-2.204,1.179-4.941,4.418-6.114
					C65.92,204.38,69.191,205.216,69.99,207.42z"/>
			</g>
			
				<linearGradient id="SVGID_00000169557503386048846370000013474502301125509510_" gradientUnits="userSpaceOnUse" x1="10.0301" y1="140.9706" x2="132.0957" y2="292.5988" gradientTransform="matrix(0.9978 0.0665 -0.0665 0.9978 26.3798 -21.3831)">
				<stop  offset="0.1124" style="stop-color:#F0C83B"/>
				<stop  offset="0.2416" style="stop-color:#F1563C"/>
				<stop  offset="0.2688" style="stop-color:#E65352"/>
				<stop  offset="0.3232" style="stop-color:#D34F7A"/>
				<stop  offset="0.3666" style="stop-color:#C74C92"/>
				<stop  offset="0.3933" style="stop-color:#C34B9B"/>
				<stop  offset="0.6068" style="stop-color:#00B3C1"/>
				<stop  offset="0.8146" style="stop-color:#00B36C"/>
				<stop  offset="1" style="stop-color:#00B3C1"/>
			</linearGradient>
			<path style="fill:url(#SVGID_00000169557503386048846370000013474502301125509510_);" d="M68.788,210.754
				c-0.451-0.03-0.793-0.421-0.763-0.872l1.66-24.899c0.024-0.363,0.285-0.666,0.639-0.746l20.208-4.502
				c0.253-0.056,0.516,0.01,0.711,0.178c0.197,0.168,0.302,0.418,0.285,0.676l-1.66,24.899c-0.03,0.452-0.421,0.793-0.873,0.763
				c-0.452-0.03-0.793-0.42-0.763-0.872l1.587-23.807l-18.542,4.131l-1.619,24.287C69.629,210.442,69.239,210.784,68.788,210.754z"
				/>
			<g>
				
					<linearGradient id="SVGID_00000031171280792862142730000001607782559833999794_" gradientUnits="userSpaceOnUse" x1="8.5547" y1="142.1575" x2="130.6211" y2="293.7866" gradientTransform="matrix(0.9978 0.0665 -0.0665 0.9978 26.3798 -21.3831)">
					<stop  offset="0.1124" style="stop-color:#F0C83B"/>
					<stop  offset="0.2416" style="stop-color:#F1563C"/>
					<stop  offset="0.2688" style="stop-color:#E65352"/>
					<stop  offset="0.3232" style="stop-color:#D34F7A"/>
					<stop  offset="0.3666" style="stop-color:#C74C92"/>
					<stop  offset="0.3933" style="stop-color:#C34B9B"/>
					<stop  offset="0.6068" style="stop-color:#00B3C1"/>
					<stop  offset="0.8146" style="stop-color:#00B36C"/>
					<stop  offset="1" style="stop-color:#00B3C1"/>
				</linearGradient>
				<path style="fill:url(#SVGID_00000031171280792862142730000001607782559833999794_);" d="M90.199,202.918
					c0.798,2.204-1.18,4.942-4.418,6.114c-3.239,1.173-6.511,0.337-7.309-1.867c-0.798-2.204,1.179-4.942,4.418-6.114
					C86.129,199.877,89.4,200.714,90.199,202.918z"/>
			</g>
			
				<linearGradient id="SVGID_00000079445509482995629270000006361624137710464148_" gradientUnits="userSpaceOnUse" x1="14.1563" y1="137.6463" x2="136.2251" y2="289.2783" gradientTransform="matrix(0.9978 0.0665 -0.0665 0.9978 26.3798 -21.3831)">
				<stop  offset="0.1124" style="stop-color:#F0C83B"/>
				<stop  offset="0.2416" style="stop-color:#F1563C"/>
				<stop  offset="0.2688" style="stop-color:#E65352"/>
				<stop  offset="0.3232" style="stop-color:#D34F7A"/>
				<stop  offset="0.3666" style="stop-color:#C74C92"/>
				<stop  offset="0.3933" style="stop-color:#C34B9B"/>
				<stop  offset="0.6068" style="stop-color:#00B3C1"/>
				<stop  offset="0.8146" style="stop-color:#00B36C"/>
				<stop  offset="1" style="stop-color:#00B3C1"/>
			</linearGradient>
			<path style="fill:url(#SVGID_00000079445509482995629270000006361624137710464148_);" d="M70.19,189.72
				c-0.358-0.024-0.671-0.282-0.748-0.651c-0.092-0.443,0.192-0.877,0.636-0.969l20.188-4.196c0.443-0.092,0.877,0.193,0.969,0.635
				c0.093,0.443-0.193,0.877-0.635,0.969l-20.188,4.196C70.336,189.72,70.262,189.725,70.19,189.72z"/>
		</g>
		<g>
			<g>
				
					<linearGradient id="SVGID_00000123405717472645872570000000407787181233399964_" gradientUnits="userSpaceOnUse" x1="180.1697" y1="-46.4131" x2="345.8735" y2="159.4218" gradientTransform="matrix(0.9978 0.0665 -0.0665 0.9978 26.3798 -21.3831)">
					<stop  offset="0.1124" style="stop-color:#F0C83B"/>
					<stop  offset="0.2416" style="stop-color:#F1563C"/>
					<stop  offset="0.2688" style="stop-color:#E65352"/>
					<stop  offset="0.3232" style="stop-color:#D34F7A"/>
					<stop  offset="0.3666" style="stop-color:#C74C92"/>
					<stop  offset="0.3933" style="stop-color:#C34B9B"/>
					<stop  offset="0.6068" style="stop-color:#00B3C1"/>
					<stop  offset="0.8146" style="stop-color:#00B36C"/>
					<stop  offset="1" style="stop-color:#00B3C1"/>
				</linearGradient>
				<path style="fill:url(#SVGID_00000123405717472645872570000000407787181233399964_);" d="M290.956,46.654
					c1.083,2.992-1.602,6.708-5.997,8.3c-4.396,1.592-8.838,0.457-9.921-2.535c-1.085-2.992,1.601-6.708,5.997-8.3
					C285.431,42.527,289.872,43.662,290.956,46.654z"/>
			</g>
			
				<linearGradient id="SVGID_00000088109925603651125930000004512091811435833278_" gradientUnits="userSpaceOnUse" x1="202.4046" y1="-64.3108" x2="368.1068" y2="141.522" gradientTransform="matrix(0.9978 0.0665 -0.0665 0.9978 26.3798 -21.3831)">
				<stop  offset="0.1124" style="stop-color:#F0C83B"/>
				<stop  offset="0.2416" style="stop-color:#F1563C"/>
				<stop  offset="0.2688" style="stop-color:#E65352"/>
				<stop  offset="0.3232" style="stop-color:#D34F7A"/>
				<stop  offset="0.3666" style="stop-color:#C74C92"/>
				<stop  offset="0.3933" style="stop-color:#C34B9B"/>
				<stop  offset="0.6068" style="stop-color:#00B3C1"/>
				<stop  offset="0.8146" style="stop-color:#00B36C"/>
				<stop  offset="1" style="stop-color:#00B3C1"/>
			</linearGradient>
			<path style="fill:url(#SVGID_00000088109925603651125930000004512091811435833278_);" d="M289.324,51.18
				c-0.613-0.041-1.076-0.571-1.036-1.184l2.253-33.799c0.033-0.493,0.386-0.905,0.868-1.012l27.433-6.112
				c0.343-0.075,0.7,0.014,0.966,0.242c0.267,0.228,0.41,0.568,0.387,0.918l-2.253,33.8c-0.041,0.613-0.572,1.076-1.185,1.036
				c-0.613-0.041-1.077-0.571-1.036-1.184l2.154-32.318l-25.171,5.608l-2.198,32.969C290.466,50.757,289.936,51.221,289.324,51.18z"
				/>
			<g>
				
					<linearGradient id="SVGID_00000026883797501044580570000012282581417187471002_" gradientUnits="userSpaceOnUse" x1="200.4019" y1="-62.6996" x2="366.1051" y2="143.1344" gradientTransform="matrix(0.9978 0.0665 -0.0665 0.9978 26.3798 -21.3831)">
					<stop  offset="0.1124" style="stop-color:#F0C83B"/>
					<stop  offset="0.2416" style="stop-color:#F1563C"/>
					<stop  offset="0.2688" style="stop-color:#E65352"/>
					<stop  offset="0.3232" style="stop-color:#D34F7A"/>
					<stop  offset="0.3666" style="stop-color:#C74C92"/>
					<stop  offset="0.3933" style="stop-color:#C34B9B"/>
					<stop  offset="0.6068" style="stop-color:#00B3C1"/>
					<stop  offset="0.8146" style="stop-color:#00B36C"/>
					<stop  offset="1" style="stop-color:#00B3C1"/>
				</linearGradient>
				<path style="fill:url(#SVGID_00000026883797501044580570000012282581417187471002_);" d="M318.39,40.542
					c1.083,2.993-1.602,6.708-5.997,8.3c-4.396,1.592-8.838,0.457-9.922-2.535c-1.084-2.992,1.601-6.709,5.997-8.3
					C312.864,36.415,317.305,37.55,318.39,40.542z"/>
			</g>
			
				<linearGradient id="SVGID_00000068641785637768113910000015251812640494111139_" gradientUnits="userSpaceOnUse" x1="208.0057" y1="-68.8239" x2="373.7127" y2="137.015" gradientTransform="matrix(0.9978 0.0665 -0.0665 0.9978 26.3798 -21.3831)">
				<stop  offset="0.1124" style="stop-color:#F0C83B"/>
				<stop  offset="0.2416" style="stop-color:#F1563C"/>
				<stop  offset="0.2688" style="stop-color:#E65352"/>
				<stop  offset="0.3232" style="stop-color:#D34F7A"/>
				<stop  offset="0.3666" style="stop-color:#C74C92"/>
				<stop  offset="0.3933" style="stop-color:#C34B9B"/>
				<stop  offset="0.6068" style="stop-color:#00B3C1"/>
				<stop  offset="0.8146" style="stop-color:#00B36C"/>
				<stop  offset="1" style="stop-color:#00B3C1"/>
			</linearGradient>
			<path style="fill:url(#SVGID_00000068641785637768113910000015251812640494111139_);" d="M291.228,22.627
				c-0.486-0.032-0.91-0.383-1.015-0.883c-0.125-0.601,0.261-1.191,0.863-1.315l27.405-5.696c0.601-0.124,1.19,0.261,1.315,0.863
				c0.126,0.601-0.262,1.19-0.863,1.315l-27.405,5.696C291.426,22.627,291.326,22.633,291.228,22.627z"/>
		</g>
		<g>
			<g>
				<g>
					
						<linearGradient id="SVGID_00000018202847882938818660000011120966834645928065_" gradientUnits="userSpaceOnUse" x1="8.7327" y1="52.4809" x2="202.0996" y2="292.6786" gradientTransform="matrix(0.9978 0.0665 -0.0665 0.9978 26.3798 -21.3831)">
						<stop  offset="0.1124" style="stop-color:#F0C83B"/>
						<stop  offset="0.2416" style="stop-color:#F1563C"/>
						<stop  offset="0.2688" style="stop-color:#E65352"/>
						<stop  offset="0.3232" style="stop-color:#D34F7A"/>
						<stop  offset="0.3666" style="stop-color:#C74C92"/>
						<stop  offset="0.3933" style="stop-color:#C34B9B"/>
						<stop  offset="0.6068" style="stop-color:#00B3C1"/>
						<stop  offset="0.8146" style="stop-color:#00B36C"/>
						<stop  offset="1" style="stop-color:#00B3C1"/>
					</linearGradient>
					<path style="fill:url(#SVGID_00000018202847882938818660000011120966834645928065_);" d="M152.199,191.495
						c0.925,2.554-1.367,5.726-5.119,7.085c-3.752,1.359-7.543,0.39-8.468-2.164c-0.925-2.554,1.367-5.726,5.119-7.085
						C147.482,187.972,151.274,188.941,152.199,191.495z"/>
				</g>
				
					<linearGradient id="SVGID_00000007409557606148867750000012848423952580501411_" gradientUnits="userSpaceOnUse" x1="26.0619" y1="38.5359" x2="219.4258" y2="278.7298" gradientTransform="matrix(0.9978 0.0665 -0.0665 0.9978 26.3798 -21.3831)">
					<stop  offset="0.1124" style="stop-color:#F0C83B"/>
					<stop  offset="0.2416" style="stop-color:#F1563C"/>
					<stop  offset="0.2688" style="stop-color:#E65352"/>
					<stop  offset="0.3232" style="stop-color:#D34F7A"/>
					<stop  offset="0.3666" style="stop-color:#C74C92"/>
					<stop  offset="0.3933" style="stop-color:#C34B9B"/>
					<stop  offset="0.6068" style="stop-color:#00B3C1"/>
					<stop  offset="0.8146" style="stop-color:#00B36C"/>
					<stop  offset="1" style="stop-color:#00B3C1"/>
				</linearGradient>
				<path style="fill:url(#SVGID_00000007409557606148867750000012848423952580501411_);" d="M150.806,195.357
					c-0.523-0.035-0.919-0.487-0.884-1.01l1.923-28.851c0.035-0.523,0.487-0.919,1.01-0.884l22.967,1.531
					c0.522,0.035,0.918,0.488,0.883,1.01c-0.035,0.523-0.487,0.919-1.01,0.884l-22.02-1.468l-1.86,27.904
					C151.781,194.997,151.329,195.392,150.806,195.357z"/>
			</g>
			<g>
				
					<linearGradient id="SVGID_00000011015548553970856090000018335395936771959202_" gradientUnits="userSpaceOnUse" x1="33.0447" y1="32.9144" x2="226.4091" y2="273.1089" gradientTransform="matrix(0.9978 0.0665 -0.0665 0.9978 26.3798 -21.3831)">
					<stop  offset="0.1124" style="stop-color:#F0C83B"/>
					<stop  offset="0.2416" style="stop-color:#F1563C"/>
					<stop  offset="0.2688" style="stop-color:#E65352"/>
					<stop  offset="0.3232" style="stop-color:#D34F7A"/>
					<stop  offset="0.3666" style="stop-color:#C74C92"/>
					<stop  offset="0.3933" style="stop-color:#C34B9B"/>
					<stop  offset="0.6068" style="stop-color:#00B3C1"/>
					<stop  offset="0.8146" style="stop-color:#00B36C"/>
					<stop  offset="1" style="stop-color:#00B3C1"/>
				</linearGradient>
				<path style="fill:url(#SVGID_00000011015548553970856090000018335395936771959202_);" d="M173.773,196.889
					c-0.524-0.035-0.92-0.487-0.885-1.01l1.923-28.851c0.035-0.523,0.487-0.919,1.011-0.884c0.522,0.035,0.918,0.488,0.883,1.01
					l-1.923,28.852C174.747,196.528,174.295,196.923,173.773,196.889z"/>
				<g>
					
						<linearGradient id="SVGID_00000151503893231359801870000012836521900101598142_" gradientUnits="userSpaceOnUse" x1="22.699" y1="41.239" x2="216.0656" y2="281.4362" gradientTransform="matrix(0.9978 0.0665 -0.0665 0.9978 26.3798 -21.3831)">
						<stop  offset="0.1124" style="stop-color:#F0C83B"/>
						<stop  offset="0.2416" style="stop-color:#F1563C"/>
						<stop  offset="0.2688" style="stop-color:#E65352"/>
						<stop  offset="0.3232" style="stop-color:#D34F7A"/>
						<stop  offset="0.3666" style="stop-color:#C74C92"/>
						<stop  offset="0.3933" style="stop-color:#C34B9B"/>
						<stop  offset="0.6068" style="stop-color:#00B3C1"/>
						<stop  offset="0.8146" style="stop-color:#00B36C"/>
						<stop  offset="1" style="stop-color:#00B3C1"/>
					</linearGradient>
					<path style="fill:url(#SVGID_00000151503893231359801870000012836521900101598142_);" d="M175.165,193.026
						c0.925,2.554-1.367,5.726-5.119,7.085c-3.753,1.359-7.543,0.39-8.468-2.164c-0.925-2.554,1.367-5.726,5.119-7.085
						C170.448,189.503,174.24,190.471,175.165,193.026z"/>
				</g>
			</g>
			
				<linearGradient id="SVGID_00000073722404887113728440000012344939176892872852_" gradientUnits="userSpaceOnUse" x1="30.6652" y1="34.8211" x2="224.0348" y2="275.022" gradientTransform="matrix(0.9978 0.0665 -0.0665 0.9978 26.3798 -21.3831)">
				<stop  offset="0.1124" style="stop-color:#F0C83B"/>
				<stop  offset="0.2416" style="stop-color:#F1563C"/>
				<stop  offset="0.2688" style="stop-color:#E65352"/>
				<stop  offset="0.3232" style="stop-color:#D34F7A"/>
				<stop  offset="0.3666" style="stop-color:#C74C92"/>
				<stop  offset="0.3933" style="stop-color:#C34B9B"/>
				<stop  offset="0.6068" style="stop-color:#00B3C1"/>
				<stop  offset="0.8146" style="stop-color:#00B36C"/>
				<stop  offset="1" style="stop-color:#00B3C1"/>
			</linearGradient>
			<path style="fill:url(#SVGID_00000073722404887113728440000012344939176892872852_);" d="M175.362,173.051l-22.967-1.531
				c-0.523-0.035-0.919-0.487-0.884-1.01c0.035-0.523,0.487-0.919,1.01-0.884l22.967,1.531c0.522,0.035,0.918,0.487,0.883,1.01
				C176.336,172.69,175.884,173.086,175.362,173.051z"/>
		</g>
		
			<linearGradient id="SVGID_00000100364434232902726790000006530939294531182257_" gradientUnits="userSpaceOnUse" x1="27.3036" y1="33.9801" x2="193.8835" y2="240.9033" gradientTransform="matrix(0.9978 0.0665 -0.0665 0.9978 26.3798 -21.3831)">
			<stop  offset="0.1124" style="stop-color:#F0C83B"/>
			<stop  offset="0.2416" style="stop-color:#F1563C"/>
			<stop  offset="0.2688" style="stop-color:#E65352"/>
			<stop  offset="0.3232" style="stop-color:#D34F7A"/>
			<stop  offset="0.3666" style="stop-color:#C74C92"/>
			<stop  offset="0.3933" style="stop-color:#C34B9B"/>
			<stop  offset="0.6068" style="stop-color:#00B3C1"/>
			<stop  offset="0.8146" style="stop-color:#00B36C"/>
			<stop  offset="1" style="stop-color:#00B3C1"/>
		</linearGradient>
		<path style="fill:url(#SVGID_00000100364434232902726790000006530939294531182257_);" d="M111.913,79.579
			c2.566-4.98,3.051-10.891,1.297-15.813c-1.634-4.587-5.502-7.739-9.854-8.029c-0.682-0.045-1.376-0.021-2.064,0.072
			c-0.245-1.229-0.466-2.36-0.669-3.427c-0.666-3.506-1.237-6.966-1.702-10.296c1.464-1.733,3.247-3.928,4.873-6.314
			c1.121-1.647,2.703-4.143,3.487-6.801c0.607-2.061,0.168-4.512-1.146-6.396c-1.093-1.568-2.625-2.494-4.312-2.607
			c-0.815-0.054-1.642,0.085-2.457,0.412c-2.518,1.013-4.638,3.333-5.67,6.208c-1.073,2.99-0.762,6.223-0.487,9.074l0.016,0.163
			c0.128,1.324,0.285,2.725,0.48,4.265c-0.889,0.993-1.826,2.021-2.846,3.124c-0.475,0.514-0.953,1.026-1.431,1.539
			c-3.553,3.814-7.228,7.758-10.053,12.33c-4.093,6.622-5.467,12.334-4.201,17.463c1.257,5.092,5.381,9.712,11.033,12.357
			c1.804,0.844,3.747,1.385,5.776,1.609c1.146,0.294,2.322,0.482,3.495,0.56c1.278,0.085,2.557,0.04,3.803-0.134
			c1.145-0.16,2.256-0.439,3.323-0.832c0.045,0.292,0.09,0.585,0.135,0.878c0.636,4.142,0.964,8.33,0.976,12.448
			c0.011,3.628-0.04,7.817-0.795,11.631c-0.407,2.052-1.136,3.99-2.054,5.456c-0.57,0.91-1.439,1.703-2.384,2.177
			c-1.397,0.699-2.861,1.162-4.353,1.378c-0.751,0.108-1.448,0.138-2.131,0.093c-0.028-0.002-0.056-0.004-0.084-0.006
			c2.655-2.21,3.26-6.075,3.397-7.728c0.201-2.423-0.648-4.931-2.329-6.883c-1.647-1.913-3.942-3.1-6.296-3.257
			c-0.706-0.047-1.417-0.003-2.116,0.13c-4.661,0.888-8.043,5.398-8.859,9.191c-0.816,3.79,0.105,9.172,9.123,13.293
			c1.832,0.837,3.773,1.329,5.77,1.462c0.001,0,0,0,0,0c6.021,0.401,11.784-2.524,15.038-7.634c1.018-1.599,1.543-3.329,2.049-5.001
			l0.091-0.3c1.591-5.229,1.912-11.239,1.009-18.913c-0.425-3.615-1.024-7.276-1.604-10.817l-0.032-0.194
			C109.073,83.955,110.704,81.924,111.913,79.579z M102.12,25.059c0.13-0.04,0.255-0.095,0.371-0.166
			c0.397,0.235,0.641,1.01,0.6,1.636c-0.007,0.12-0.022,0.255-0.045,0.412c-0.018,0.12-0.021,0.241-0.012,0.362
			c0.011,0.142,0.011,0.273-0.001,0.401c-0.039,0.436-0.191,0.955-0.463,1.584c-1.075,1.463-2.213,2.936-3.433,4.445
			c0.006-0.945,0.02-1.845,0.123-2.731c0.162-1.387,0.566-2.76,1.2-4.081c0.27-0.561,0.682-1.062,1.115-1.566
			C101.671,25.243,101.791,25.159,102.12,25.059z M83.214,65.107c0.863-3.342,2.553-7.504,9.017-15.257
			c0.798-0.957,1.623-1.916,2.445-2.861c0.489,3.161,1.107,6.528,1.956,10.649c-2.276,1.565-4.196,4.038-5.368,6.952
			c-0.99,2.46-1.305,4.938-0.913,7.167c0.502,2.848,2.557,4.697,5.785,5.208c0.049,0.008,0.112,0.015,0.161,0.018
			c1.116,0.074,2.013-0.857,2.151-1.773c0.137-0.912-0.437-1.76-1.337-1.973c-0.839-0.198-1.915-0.586-2.283-1.313
			c-0.416-0.823-0.523-1.941-0.327-3.417c0.075-0.56,0.204-1.135,0.385-1.711c0.648-1.393,1.76-2.626,2.977-3.374
			c0.164,0.754,0.328,1.508,0.493,2.262c1.228,5.636,2.496,11.453,3.443,17.229c-0.499,0.21-1.018,0.371-1.491,0.505
			c-0.137,0.015-0.274,0.03-0.411,0.045c-0.302,0.033-0.606,0.066-0.909,0.105l-0.422,0.055c-1.289,0.169-2.506,0.328-3.7,0.248
			c-0.32-0.021-0.623-0.058-0.925-0.112c-0.464-0.083-0.925-0.178-1.414-0.279c-0.373-0.077-0.757-0.157-1.144-0.23
			c-2.011-0.889-3.84-2.213-5.298-3.837C82.842,75.802,81.797,70.589,83.214,65.107z M106.221,77.068
			c-0.115,0.342-0.239,0.671-0.371,0.985c-0.839-4.436-1.771-8.865-2.68-13.183c-0.093-0.44-0.186-0.881-0.278-1.322
			c1.469,0.928,2.752,2.431,3.297,3.77C107.326,70.109,107.338,73.753,106.221,77.068z"/>
	</g>
</g>
</svg>
